<svg width="23.000000" height="23.000000" viewBox="0 0 23 23" fill="none" xmlns="http://www.w3.org/2000/svg" xmlns:xlink="http://www.w3.org/1999/xlink">
	<desc>
			Created with Pixso.
	</desc>
	<defs/>
	<path id="Vector" d="M11 -0.41C17.44 -0.41 22.66 4.81 22.66 11.26C22.66 17.7 17.44 22.92 11 22.92C4.55 22.92 -0.67 17.7 -0.67 11.26C-0.67 4.81 4.55 -0.41 11 -0.41ZM11 1.34C5.52 1.34 1.08 5.78 1.08 11.26C1.08 16.73 5.52 21.17 11 21.17C16.47 21.17 20.91 16.73 20.91 11.26C20.91 5.78 16.47 1.34 11 1.34ZM10.99 9.5C11.43 9.5 11.8 9.83 11.86 10.26L11.87 10.38L11.87 16.8C11.87 17.28 11.48 17.67 11 17.67C10.55 17.67 10.19 17.34 10.13 16.92L10.12 16.8L10.12 10.38C10.12 9.9 10.51 9.51 10.99 9.5ZM11 5.42C11.64 5.42 12.16 5.95 12.16 6.59C12.16 7.23 11.64 7.75 11 7.75C10.35 7.75 9.83 7.23 9.83 6.59C9.83 5.95 10.35 5.42 11 5.42Z" fill="#2CA6DE" fill-opacity="1.000000" fill-rule="nonzero"/>
</svg>
