<svg width="33.000000" height="33.000000" viewBox="0 0 33 33" fill="none" xmlns="http://www.w3.org/2000/svg" xmlns:xlink="http://www.w3.org/1999/xlink">
	<desc>
			Created with Pixso.
	</desc>
	<defs/>
	<path id="Vector" d="M9.06 13.9C8.93 13.9 8.8 13.85 8.71 13.76L6.83 11.87L3.13 11.87C3 11.87 2.87 11.82 2.78 11.73L2.01 10.96C1.81 10.76 1.81 10.45 2.01 10.26C2.2 10.07 2.51 10.07 2.7 10.26L3.33 10.89L7.03 10.89C7.16 10.89 7.28 10.94 7.38 11.04L9.06 12.71L11.48 10.29C11.75 10.02 12.12 9.87 12.5 9.87L13.91 9.87L14.06 9.71C14.26 9.52 14.57 9.52 14.76 9.71C14.95 9.9 14.95 10.22 14.76 10.41L14.46 10.71C14.37 10.8 14.25 10.85 14.11 10.85L12.5 10.85C12.38 10.85 12.26 10.9 12.17 10.99L9.4 13.76C9.31 13.85 9.18 13.9 9.06 13.9Z" fill="#FFFFFF" fill-opacity="1.000000" fill-rule="nonzero"/>
	<path id="Vector" d="M0.07 8.81C-0.06 8.81 -0.18 8.77 -0.28 8.67L-0.64 8.31C-0.73 8.22 -0.78 8.09 -0.78 7.96L-0.78 3.13C-0.78 3 -0.73 2.87 -0.64 2.78L-0.56 2.7C-0.37 2.51 -0.06 2.51 0.13 2.7L4.61 7.18L7.18 4.61L2.7 0.13C2.51 -0.06 2.51 -0.37 2.7 -0.56L2.78 -0.64C2.87 -0.73 3 -0.78 3.13 -0.78L7.96 -0.78C8.09 -0.78 8.22 -0.73 8.31 -0.64L11.73 2.78C11.82 2.87 11.87 3 11.87 3.13L11.87 6.82L12.83 7.79C13.03 7.98 13.03 8.29 12.83 8.48C12.64 8.67 12.33 8.67 12.14 8.48L11.03 7.38C10.94 7.28 10.89 7.16 10.89 7.03L10.89 3.33L7.76 0.2L4.16 0.2L8.22 4.26C8.41 4.45 8.41 4.76 8.22 4.95L4.95 8.22C4.86 8.31 4.74 8.37 4.61 8.37C4.48 8.37 4.35 8.31 4.26 8.22L0.2 4.16L0.2 7.76L0.41 7.97C0.61 8.16 0.61 8.48 0.41 8.67C0.32 8.77 0.19 8.81 0.07 8.81Z" fill="#FFFFFF" fill-opacity="1.000000" fill-rule="nonzero"/>
	<path id="Vector" d="M1.17 9.92C1.04 9.92 0.92 9.87 0.82 9.77C0.73 9.68 0.68 9.56 0.68 9.43C0.68 9.39 0.68 9.36 0.69 9.33C0.7 9.3 0.7 9.27 0.72 9.24C0.73 9.21 0.75 9.18 0.76 9.15C0.78 9.13 0.8 9.1 0.82 9.08C0.92 8.99 1.04 8.93 1.17 8.93C1.3 8.93 1.43 8.99 1.52 9.08C1.54 9.1 1.56 9.13 1.58 9.15C1.6 9.18 1.61 9.21 1.63 9.24C1.64 9.27 1.65 9.3 1.65 9.33C1.66 9.36 1.66 9.39 1.66 9.43C1.66 9.55 1.61 9.68 1.52 9.77C1.5 9.8 1.47 9.82 1.45 9.83C1.42 9.85 1.39 9.87 1.36 9.88C1.33 9.89 1.3 9.9 1.27 9.91C1.24 9.91 1.2 9.92 1.17 9.92Z" fill="#FFFFFF" fill-opacity="1.000000" fill-rule="nonzero"/>
	<path id="Vector" d="M28.86 32.77L24.03 32.77C23.9 32.77 23.77 32.72 23.68 32.63L20.26 29.21C20.17 29.12 20.12 28.99 20.12 28.86L20.12 25.16L19.68 24.73C19.49 24.54 19.49 24.23 19.68 24.04C19.88 23.85 20.19 23.85 20.38 24.04L20.96 24.61C21.05 24.71 21.1 24.83 21.1 24.96L21.1 28.66L24.23 31.79L27.83 31.79L23.77 27.73C23.68 27.64 23.62 27.51 23.62 27.38C23.62 27.25 23.68 27.13 23.77 27.04L27.04 23.77C27.23 23.58 27.54 23.58 27.73 23.77L31.79 27.83L31.79 24.23L28.66 21.1L24.96 21.1C24.83 21.1 24.71 21.05 24.61 20.96L22.66 19L19.45 22.21C19.17 22.49 18.86 22.76 18.54 23C18.32 23.16 18.01 23.11 17.85 22.9C17.69 22.68 17.74 22.37 17.95 22.21C18.23 22 18.5 21.76 18.75 21.51L22.3 17.97C22.3 17.97 22.3 17.96 22.31 17.96L22.32 17.95C22.51 17.76 22.82 17.77 23 17.96L25.16 20.12L28.86 20.12C28.99 20.12 29.12 20.17 29.21 20.26L32.63 23.68C32.72 23.77 32.77 23.9 32.77 24.03L32.77 28.86C32.77 28.99 32.72 29.12 32.63 29.21L32.55 29.29C32.46 29.38 32.33 29.43 32.2 29.43C32.07 29.43 31.95 29.38 31.85 29.29L27.38 24.81L24.81 27.38L29.28 31.86C29.38 31.95 29.43 32.08 29.43 32.21C29.43 32.34 29.38 32.46 29.28 32.56L29.21 32.63C29.12 32.72 28.99 32.77 28.86 32.77Z" fill="#FFFFFF" fill-opacity="1.000000" fill-rule="nonzero"/>
	<path id="Vector" d="M13.51 24.67C13.24 24.67 13.02 24.45 13.02 24.17C13.02 23.9 13.24 23.68 13.51 23.68C15.1 23.68 16.68 23.16 17.95 22.21C18.23 22 18.5 21.76 18.75 21.51L22.3 17.97C22.3 17.97 22.3 17.96 22.31 17.96L22.32 17.95L22.75 17.52C23.14 17.13 23.35 16.62 23.35 16.07C23.35 15.52 23.14 15.01 22.75 14.62L21.46 13.34C21.27 13.14 21.27 12.83 21.46 12.64C21.65 12.45 21.97 12.45 22.16 12.64L23.45 13.93C24.02 14.5 24.33 15.26 24.33 16.07C24.33 16.88 24.02 17.64 23.45 18.21L23.01 18.65C23 18.66 23 18.66 23 18.66L22.99 18.67L19.45 22.21C19.17 22.49 18.86 22.76 18.54 23C17.1 24.07 15.31 24.67 13.51 24.67Z" fill="#FFFFFF" fill-opacity="1.000000" fill-rule="nonzero"/>
	<path id="Vector" d="M20.6 12.27C20.47 12.27 20.35 12.22 20.25 12.13C20.23 12.1 20.21 12.08 20.19 12.05C20.17 12.03 20.16 12 20.15 11.97C20.13 11.94 20.13 11.91 20.12 11.87C20.11 11.84 20.11 11.81 20.11 11.78C20.11 11.65 20.16 11.52 20.25 11.43C20.37 11.32 20.54 11.26 20.7 11.3C20.73 11.3 20.76 11.31 20.79 11.32C20.82 11.34 20.85 11.35 20.87 11.37C20.9 11.39 20.93 11.41 20.95 11.43C21.04 11.52 21.09 11.65 21.09 11.78C21.09 11.81 21.09 11.84 21.08 11.87C21.08 11.91 21.07 11.94 21.06 11.97C21.04 12 21.03 12.03 21.01 12.05C20.99 12.08 20.97 12.1 20.95 12.13C20.93 12.15 20.9 12.17 20.87 12.19C20.85 12.21 20.82 12.22 20.79 12.23C20.76 12.25 20.73 12.25 20.7 12.26C20.67 12.27 20.63 12.27 20.6 12.27Z" fill="#FFFFFF" fill-opacity="1.000000" fill-rule="nonzero"/>
	<path id="Vector" d="M11.78 26.41C11.65 26.41 11.52 26.36 11.43 26.26L5.93 20.77C5.74 20.58 5.74 20.26 5.93 20.07L7.83 18.17L7.83 14.54C7.83 14.16 7.99 13.78 8.26 13.51L11.48 10.29C11.75 10.02 12.12 9.87 12.5 9.87L13.91 9.87L14.5 9.27C14.54 9.24 14.59 9.19 14.65 9.14C15.84 8.09 17.66 8.14 18.79 9.27L19.86 10.34C20.05 10.53 20.05 10.85 19.86 11.04C19.67 11.23 19.36 11.23 19.16 11.04L18.1 9.97C17.33 9.21 16.1 9.17 15.29 9.88C15.29 9.88 15.29 9.89 15.29 9.89C15.26 9.91 15.23 9.94 15.2 9.97L14.46 10.71C14.37 10.8 14.25 10.85 14.12 10.85L12.5 10.85C12.38 10.85 12.26 10.9 12.17 10.99L8.95 14.21C8.87 14.29 8.82 14.42 8.82 14.54L8.82 18.38C8.82 18.51 8.76 18.63 8.67 18.72L6.98 20.42L12.12 25.56C12.32 25.76 12.32 26.07 12.12 26.26C12.03 26.36 11.9 26.41 11.78 26.41Z" fill="#FFFFFF" fill-opacity="1.000000" fill-rule="nonzero"/>
	<path id="Vector" d="M10.65 29.69C10.52 29.69 10.4 29.64 10.3 29.55L2.49 21.73C2.3 21.54 2.3 21.23 2.49 21.04L4.7 18.83C4.89 18.64 5.2 18.64 5.39 18.83L13.21 26.65C13.4 26.84 13.4 27.15 13.21 27.34L11 29.55C10.91 29.64 10.78 29.69 10.65 29.69ZM3.53 21.39L10.65 28.5L12.16 26.99L5.04 19.88L3.53 21.39Z" fill="#FFFFFF" fill-opacity="1.000000" fill-rule="nonzero"/>
</svg>
