<svg width="29.000000" height="35.000000" viewBox="0 0 29 35" fill="none" xmlns="http://www.w3.org/2000/svg" xmlns:xlink="http://www.w3.org/1999/xlink">
	<desc>
			Created with Pixso.
	</desc>
	<defs/>
	<path id="Vector" d="M7.79 34.05C7.75 34.05 7.72 34.04 7.69 34.04C7.66 34.03 7.63 34.02 7.6 34.01C7.57 34 7.54 33.98 7.51 33.96C7.49 33.94 7.46 33.92 7.44 33.9C7.35 33.81 7.29 33.68 7.29 33.55C7.29 33.52 7.3 33.49 7.3 33.46C7.31 33.43 7.32 33.4 7.33 33.37C7.34 33.33 7.36 33.31 7.38 33.28C7.39 33.25 7.41 33.23 7.44 33.21C7.46 33.18 7.49 33.16 7.51 33.14C7.54 33.13 7.57 33.11 7.6 33.1C7.63 33.09 7.66 33.08 7.69 33.07C7.75 33.06 7.82 33.06 7.88 33.07C7.91 33.08 7.94 33.09 7.97 33.1C8 33.11 8.03 33.13 8.06 33.14C8.08 33.16 8.11 33.18 8.13 33.21C8.16 33.23 8.18 33.25 8.19 33.28C8.21 33.31 8.23 33.33 8.24 33.37C8.25 33.4 8.26 33.43 8.27 33.46C8.27 33.49 8.28 33.52 8.28 33.55C8.28 33.68 8.22 33.81 8.13 33.9C8.11 33.92 8.08 33.94 8.06 33.96C8.03 33.98 8 34 7.97 34.01C7.94 34.02 7.91 34.03 7.88 34.04C7.85 34.04 7.82 34.05 7.79 34.05Z" fill="#FFFFFF" fill-opacity="1.000000" fill-rule="nonzero"/>
	<path id="Vector" d="M28.01 12.69L26.45 12.69C26.18 12.69 25.96 12.47 25.96 12.2C25.96 11.92 26.18 11.71 26.45 11.71L28.01 11.71C28.28 11.71 28.5 11.92 28.5 12.2C28.5 12.47 28.28 12.69 28.01 12.69Z" fill="#FFFFFF" fill-opacity="1.000000" fill-rule="nonzero"/>
	<path id="Vector" d="M28.01 16.29L26.45 16.29C26.18 16.29 25.96 16.07 25.96 15.8C25.96 15.53 26.18 15.31 26.45 15.31L28.01 15.31C28.28 15.31 28.5 15.53 28.5 15.8C28.5 16.07 28.28 16.29 28.01 16.29Z" fill="#FFFFFF" fill-opacity="1.000000" fill-rule="nonzero"/>
	<path id="Vector" d="M28.01 19.9L26.45 19.9C26.18 19.9 25.96 19.68 25.96 19.4C25.96 19.13 26.18 18.91 26.45 18.91L28.01 18.91C28.28 18.91 28.5 19.13 28.5 19.4C28.5 19.68 28.28 19.9 28.01 19.9Z" fill="#FFFFFF" fill-opacity="1.000000" fill-rule="nonzero"/>
	<path id="Vector" d="M28.01 23.5L26.45 23.5C26.18 23.5 25.96 23.28 25.96 23.01C25.96 22.74 26.18 22.52 26.45 22.52L28.01 22.52C28.28 22.52 28.5 22.74 28.5 23.01C28.5 23.28 28.28 23.5 28.01 23.5Z" fill="#FFFFFF" fill-opacity="1.000000" fill-rule="nonzero"/>
	<path id="Vector" d="M28.01 27.1L26.45 27.1C26.18 27.1 25.96 26.88 25.96 26.61C25.96 26.34 26.18 26.12 26.45 26.12L28.01 26.12C28.28 26.12 28.5 26.34 28.5 26.61C28.5 26.88 28.28 27.1 28.01 27.1Z" fill="#FFFFFF" fill-opacity="1.000000" fill-rule="nonzero"/>
	<path id="Vector" d="M28.01 30.71L26.45 30.71C26.18 30.71 25.96 30.49 25.96 30.21C25.96 29.94 26.18 29.72 26.45 29.72L28.01 29.72C28.28 29.72 28.5 29.94 28.5 30.21C28.5 30.49 28.28 30.71 28.01 30.71Z" fill="#FFFFFF" fill-opacity="1.000000" fill-rule="nonzero"/>
	<path id="Vector" d="M22.65 28.69C22.38 28.69 22.16 28.47 22.16 28.19L22.16 20.44L14.9 27.7L20.15 27.7C20.42 27.7 20.64 27.92 20.64 28.19C20.64 28.47 20.42 28.69 20.15 28.69L13.71 28.69C13.51 28.69 13.33 28.57 13.25 28.38C13.18 28.2 13.22 27.99 13.36 27.85L22.3 18.91C22.44 18.76 22.65 18.72 22.84 18.8C23.02 18.87 23.14 19.05 23.14 19.25L23.14 28.19C23.14 28.46 22.92 28.69 22.65 28.69Z" fill="#FFFFFF" fill-opacity="1.000000" fill-rule="nonzero"/>
	<path id="Vector" d="M28.01 34.05L9.39 34.05C9.12 34.05 8.9 33.83 8.9 33.55C8.9 33.28 9.12 33.06 9.39 33.06L27.52 33.06L27.52 7.5L1.96 33.06L6.1 33.06C6.37 33.06 6.59 33.28 6.59 33.55C6.59 33.83 6.37 34.05 6.1 34.05L0.77 34.05C0.57 34.05 0.39 33.93 0.31 33.74C0.24 33.56 0.28 33.35 0.42 33.21L27.66 5.96C27.8 5.82 28.01 5.78 28.2 5.86C28.38 5.93 28.5 6.11 28.5 6.31L28.5 33.55C28.5 33.83 28.28 34.05 28.01 34.05Z" fill="#FFFFFF" fill-opacity="1.000000" fill-rule="nonzero"/>
	<path id="Vector" d="M22.86 6.7C22.75 6.7 22.65 6.67 22.56 6.6C22.37 6.46 22.31 6.21 22.41 6C22.47 5.85 22.6 5.74 22.75 5.71C22.92 5.67 23.09 5.72 23.21 5.84L23.22 5.85C23.41 6.04 23.41 6.35 23.22 6.54L23.2 6.56C23.11 6.65 22.98 6.7 22.86 6.7Z" fill="#FFFFFF" fill-opacity="1.000000" fill-rule="nonzero"/>
	<path id="Vector" d="M3.11 25.81C2.58 25.81 2.06 25.61 1.66 25.21L0.13 23.68C-0.67 22.88 -0.67 21.59 0.13 20.79L1.5 19.42C1.69 19.23 2 19.23 2.19 19.42C2.38 19.62 2.38 19.93 2.19 20.12L0.83 21.49C0.41 21.9 0.41 22.57 0.83 22.98L2.36 24.52C2.77 24.93 3.44 24.93 3.85 24.52L21.34 7.03C21.08 6.95 20.84 6.8 20.63 6.6C20.28 6.24 20.08 5.75 20.1 5.24C19.6 5.26 19.1 5.06 18.75 4.71C18.54 4.5 18.39 4.26 18.31 4L3.57 18.74C3.38 18.93 3.07 18.93 2.88 18.74C2.69 18.55 2.69 18.23 2.88 18.04L18.55 2.37C18.72 2.2 19 2.18 19.2 2.33C19.4 2.49 19.45 2.76 19.32 2.98C19.11 3.31 19.16 3.73 19.44 4.01C19.61 4.18 19.83 4.27 20.07 4.26C20.34 4.25 20.61 4.35 20.8 4.54C20.99 4.73 21.1 5 21.08 5.27C21.07 5.51 21.16 5.73 21.33 5.9C21.61 6.18 22.03 6.23 22.36 6.03C22.58 5.9 22.85 5.95 23.01 6.15C23.16 6.34 23.14 6.62 22.97 6.8L4.55 25.21C4.15 25.61 3.63 25.81 3.11 25.81Z" fill="#FFFFFF" fill-opacity="1.000000" fill-rule="nonzero"/>
	<path id="Vector" d="M3.71 22.13C3.58 22.13 3.45 22.08 3.36 21.98C3.17 21.79 3.17 21.48 3.36 21.29L17.37 7.28C17.56 7.09 17.87 7.09 18.06 7.28C18.25 7.47 18.25 7.79 18.06 7.98L4.05 21.98C3.96 22.08 3.83 22.13 3.71 22.13Z" fill="#FFFFFF" fill-opacity="1.000000" fill-rule="nonzero"/>
	<path id="Vector" d="M18.88 6.95C18.85 6.95 18.82 6.95 18.79 6.94C18.76 6.93 18.73 6.92 18.7 6.91C18.67 6.9 18.64 6.88 18.61 6.87C18.58 6.85 18.56 6.83 18.54 6.81C18.45 6.71 18.39 6.59 18.39 6.46C18.39 6.42 18.4 6.39 18.4 6.36C18.41 6.33 18.42 6.3 18.43 6.27C18.44 6.24 18.46 6.21 18.48 6.18C18.49 6.16 18.51 6.13 18.54 6.11C18.56 6.09 18.58 6.07 18.61 6.05C18.64 6.03 18.67 6.02 18.7 6C18.73 5.99 18.76 5.98 18.79 5.98C18.95 5.94 19.12 6 19.23 6.11C19.26 6.13 19.28 6.16 19.29 6.18C19.31 6.21 19.33 6.24 19.34 6.27C19.35 6.3 19.36 6.33 19.37 6.36C19.37 6.39 19.38 6.42 19.38 6.46C19.38 6.59 19.33 6.71 19.23 6.81C19.14 6.9 19.01 6.95 18.88 6.95Z" fill="#FFFFFF" fill-opacity="1.000000" fill-rule="nonzero"/>
	<path id="Vector" d="M3.11 25.85C2.61 25.85 2.11 25.66 1.74 25.29L0.06 23.61C-0.7 22.85 -0.7 21.62 0.06 20.86L1.5 19.42C1.69 19.23 2 19.23 2.19 19.42L5.92 23.15C6.11 23.34 6.11 23.65 5.92 23.85L4.48 25.29C4.1 25.66 3.6 25.85 3.11 25.85ZM2.43 24.59C2.8 24.96 3.41 24.96 3.78 24.59L4.87 23.5L1.84 20.47L0.75 21.56C0.38 21.93 0.38 22.54 0.75 22.91L2.43 24.59Z" fill="#FFFFFF" fill-opacity="1.000000" fill-rule="nonzero"/>
	<path id="Vector" d="M21.93 7.13C21.45 7.13 20.99 6.95 20.64 6.6C20.28 6.24 20.08 5.75 20.1 5.24C19.6 5.26 19.1 5.06 18.75 4.71C18.15 4.11 18.04 3.19 18.47 2.46C18.5 2.42 18.53 2.38 18.55 2.35C18.64 2.22 18.77 2.11 18.91 2.04C18.93 2.03 18.95 2.03 18.97 2.02C19.03 1.99 19.08 1.98 19.14 1.96L24.74 -0.03C24.92 -0.09 25.12 -0.05 25.25 0.09C25.39 0.22 25.43 0.42 25.37 0.6L23.38 6.2C23.36 6.26 23.35 6.31 23.33 6.37C23.32 6.39 23.31 6.41 23.29 6.44C23.22 6.57 23.12 6.7 23 6.79C22.96 6.81 22.92 6.84 22.88 6.87C22.58 7.05 22.25 7.13 21.93 7.13ZM20.11 4.26C20.37 4.26 20.62 4.36 20.8 4.54C20.99 4.73 21.1 5 21.08 5.27C21.08 5.51 21.16 5.73 21.33 5.9C21.61 6.18 22.03 6.23 22.36 6.03C22.38 6.02 22.4 6.01 22.41 6C22.42 5.96 22.43 5.93 22.44 5.91L24.09 1.25L19.44 2.91C19.41 2.92 19.38 2.92 19.35 2.93C19.34 2.95 19.33 2.96 19.31 2.98C19.11 3.31 19.16 3.74 19.44 4.01C19.61 4.18 19.83 4.27 20.07 4.26C20.09 4.26 20.1 4.26 20.11 4.26Z" fill="#FFFFFF" fill-opacity="1.000000" fill-rule="nonzero"/>
	<path id="Vector" d="M23.88 3.8C23.76 3.8 23.63 3.75 23.54 3.66L21.68 1.81C21.49 1.62 21.49 1.3 21.68 1.11C21.88 0.92 22.19 0.92 22.38 1.11L24.23 2.96C24.42 3.15 24.42 3.46 24.23 3.66C24.13 3.75 24.01 3.8 23.88 3.8Z" fill="#FFFFFF" fill-opacity="1.000000" fill-rule="nonzero"/>
</svg>
