<svg width="35.000000" height="29.000000" viewBox="0 0 35 29" fill="none" xmlns="http://www.w3.org/2000/svg" xmlns:xlink="http://www.w3.org/1999/xlink">
	<desc>
			Created with Pixso.
	</desc>
	<defs/>
	<path id="Vector" d="M7.51 24.5C7.24 24.5 7.02 24.28 7.02 24C7.02 22.32 5.65 20.96 3.97 20.96C2.29 20.96 0.93 22.32 0.93 24C0.93 24.28 0.71 24.5 0.44 24.5C0.16 24.5 -0.06 24.28 -0.06 24L-0.06 3.99C-0.06 1.76 1.75 -0.04 3.97 -0.04C6.2 -0.04 8 1.76 8 3.99L8 24C8 24.28 7.78 24.5 7.51 24.5ZM3.97 19.97C5.19 19.97 6.28 20.51 7.02 21.37L7.02 3.99C7.02 2.31 5.65 0.94 3.97 0.94C2.29 0.94 0.93 2.31 0.93 3.99L0.93 21.37C1.67 20.51 2.76 19.97 3.97 19.97Z" fill="#FFFFFF" fill-opacity="1.000000" fill-rule="nonzero"/>
	<path id="Vector" d="M33.55 28.03C33.28 28.03 33.06 27.81 33.06 27.54L33.06 4.48L8 4.48L8 24C8 24.28 7.78 24.5 7.51 24.5C7.24 24.5 7.02 24.28 7.02 24C7.02 22.33 5.65 20.96 3.97 20.96C2.29 20.96 0.93 22.33 0.93 24C0.93 25.68 2.29 27.05 3.97 27.05L30.74 27.05C31.01 27.05 31.23 27.27 31.23 27.54C31.23 27.81 31.01 28.03 30.74 28.03L3.97 28.03C1.75 28.03 -0.06 26.23 -0.06 24C-0.06 21.78 1.75 19.97 3.97 19.97C5.19 19.97 6.28 20.51 7.02 21.37L7.02 3.99C7.02 3.71 7.24 3.5 7.51 3.5L33.55 3.5C33.83 3.5 34.05 3.71 34.05 3.99L34.05 27.54C34.05 27.81 33.83 28.03 33.55 28.03Z" fill="#FFFFFF" fill-opacity="1.000000" fill-rule="nonzero"/>
	<path id="Vector" d="M14.98 12.57L10.17 12.57C9.89 12.57 9.67 12.35 9.67 12.07L9.67 7.26C9.67 6.99 9.89 6.77 10.17 6.77L14.98 6.77C15.25 6.77 15.47 6.99 15.47 7.26L15.47 12.07C15.47 12.35 15.25 12.57 14.98 12.57ZM10.66 11.58L14.49 11.58L14.49 7.75L10.66 7.75L10.66 11.58Z" fill="#FFFFFF" fill-opacity="1.000000" fill-rule="nonzero"/>
	<path id="Vector" d="M19.14 24.52L15.5 24.52C15.23 24.52 15.01 24.3 15.01 24.03C15.01 23.76 15.23 23.54 15.5 23.54L18.65 23.54L18.65 15.55L10.66 15.55L10.66 23.54L11.31 23.54C11.59 23.54 11.81 23.76 11.81 24.03C11.81 24.3 11.59 24.52 11.31 24.52L10.17 24.52C9.89 24.52 9.67 24.3 9.67 24.03L9.67 15.05C9.67 14.78 9.89 14.56 10.17 14.56L19.14 14.56C19.41 14.56 19.63 14.78 19.63 15.05L19.63 24.03C19.63 24.3 19.41 24.52 19.14 24.52Z" fill="#FFFFFF" fill-opacity="1.000000" fill-rule="nonzero"/>
	<path id="Vector" d="M13.17 24.52C13.04 24.52 12.92 24.47 12.83 24.38C12.8 24.36 12.78 24.33 12.76 24.3C12.75 24.28 12.73 24.25 12.72 24.22C12.71 24.19 12.7 24.16 12.69 24.13C12.68 24.1 12.68 24.06 12.68 24.03C12.68 24 12.68 23.97 12.69 23.93C12.7 23.9 12.71 23.87 12.72 23.84C12.73 23.81 12.75 23.78 12.76 23.76C12.78 23.73 12.8 23.71 12.83 23.68C12.92 23.59 13.04 23.54 13.17 23.54C13.3 23.54 13.43 23.59 13.52 23.68C13.54 23.71 13.56 23.73 13.58 23.76C13.6 23.78 13.62 23.81 13.63 23.84C13.64 23.87 13.65 23.9 13.66 23.93C13.66 23.97 13.66 24 13.66 24.03C13.66 24.06 13.66 24.1 13.66 24.13C13.65 24.16 13.64 24.19 13.63 24.22C13.62 24.25 13.6 24.28 13.58 24.3C13.56 24.33 13.54 24.36 13.52 24.38C13.43 24.47 13.3 24.52 13.17 24.52Z" fill="#FFFFFF" fill-opacity="1.000000" fill-rule="nonzero"/>
	<path id="Vector" d="M29.7 12.57L17 12.57C16.72 12.57 16.5 12.35 16.5 12.07L16.5 7.26C16.5 6.99 16.72 6.77 17 6.77L23.21 6.77C23.48 6.77 23.7 6.99 23.7 7.26C23.7 7.54 23.48 7.75 23.21 7.75L17.49 7.75L17.49 11.58L29.21 11.58L29.21 7.75L26.93 7.75C26.66 7.75 26.44 7.54 26.44 7.26C26.44 6.99 26.66 6.77 26.93 6.77L29.7 6.77C29.97 6.77 30.19 6.99 30.19 7.26L30.19 12.07C30.19 12.35 29.97 12.57 29.7 12.57Z" fill="#FFFFFF" fill-opacity="1.000000" fill-rule="nonzero"/>
	<path id="Vector" d="M24.96 7.76C24.93 7.76 24.89 7.75 24.86 7.75C24.83 7.74 24.8 7.73 24.77 7.72C24.74 7.71 24.71 7.69 24.69 7.67C24.66 7.65 24.63 7.63 24.61 7.61C24.59 7.59 24.57 7.56 24.55 7.54C24.53 7.51 24.52 7.48 24.5 7.45C24.49 7.42 24.48 7.39 24.48 7.36C24.47 7.33 24.47 7.3 24.47 7.26C24.47 7.23 24.47 7.2 24.48 7.17C24.48 7.14 24.49 7.1 24.5 7.08C24.52 7.05 24.53 7.02 24.55 6.99C24.57 6.96 24.59 6.94 24.61 6.92C24.63 6.89 24.66 6.87 24.69 6.85C24.71 6.84 24.74 6.82 24.77 6.81C24.8 6.8 24.83 6.79 24.86 6.78C24.93 6.77 24.99 6.77 25.05 6.78C25.09 6.79 25.12 6.8 25.15 6.81C25.18 6.82 25.21 6.84 25.23 6.85C25.26 6.87 25.28 6.89 25.31 6.92C25.33 6.94 25.35 6.96 25.37 6.99C25.39 7.02 25.4 7.05 25.41 7.08C25.42 7.1 25.43 7.14 25.44 7.17C25.45 7.2 25.45 7.23 25.45 7.26C25.45 7.3 25.45 7.33 25.44 7.36C25.43 7.39 25.42 7.42 25.41 7.45C25.4 7.48 25.39 7.51 25.37 7.54C25.35 7.56 25.33 7.59 25.31 7.61C25.28 7.63 25.26 7.65 25.23 7.67C25.21 7.69 25.18 7.71 25.15 7.72C25.12 7.73 25.09 7.74 25.05 7.75C25.02 7.75 24.99 7.76 24.96 7.76Z" fill="#FFFFFF" fill-opacity="1.000000" fill-rule="nonzero"/>
	<path id="Vector" d="M24.89 24.76L22.19 24.76C21.92 24.76 21.7 24.54 21.7 24.26L21.7 15.05C21.7 14.78 21.92 14.56 22.19 14.56L24.89 14.56C25.16 14.56 25.38 14.78 25.38 15.05L25.38 24.26C25.38 24.54 25.16 24.76 24.89 24.76ZM22.69 23.77L24.39 23.77L24.39 15.55L22.69 15.55L22.69 23.77Z" fill="#FFFFFF" fill-opacity="1.000000" fill-rule="nonzero"/>
	<path id="Vector" d="M29.7 24.76L27 24.76C26.73 24.76 26.51 24.54 26.51 24.26L26.51 15.05C26.51 14.78 26.73 14.56 27 14.56L29.7 14.56C29.97 14.56 30.19 14.78 30.19 15.05L30.19 24.26C30.19 24.54 29.97 24.76 29.7 24.76ZM27.5 23.77L29.21 23.77L29.21 15.55L27.5 15.55L27.5 23.77Z" fill="#FFFFFF" fill-opacity="1.000000" fill-rule="nonzero"/>
	<path id="Vector" d="M3.76 18.13C3.49 18.13 3.27 17.91 3.27 17.64L3.27 4.53C3.27 4.25 3.49 4.03 3.76 4.03C4.04 4.03 4.25 4.25 4.25 4.53L4.25 17.64C4.25 17.91 4.03 18.13 3.76 18.13Z" fill="#FFFFFF" fill-opacity="1.000000" fill-rule="nonzero"/>
	<path id="Vector" d="M3.76 3.46C3.63 3.46 3.51 3.41 3.41 3.32C3.32 3.23 3.27 3.1 3.27 2.97C3.27 2.84 3.32 2.72 3.41 2.62C3.53 2.51 3.7 2.46 3.86 2.49C3.89 2.5 3.92 2.51 3.95 2.52C3.98 2.53 4.01 2.54 4.04 2.56C4.06 2.58 4.09 2.6 4.11 2.62C4.2 2.72 4.25 2.84 4.25 2.97C4.25 3.1 4.2 3.23 4.11 3.32C4.09 3.34 4.06 3.36 4.04 3.38C4.01 3.4 3.98 3.41 3.95 3.43C3.92 3.44 3.89 3.45 3.86 3.45C3.83 3.46 3.79 3.46 3.76 3.46Z" fill="#FFFFFF" fill-opacity="1.000000" fill-rule="nonzero"/>
</svg>
