<svg width="27.000000" height="35.000000" viewBox="0 0 27 35" fill="none" xmlns="http://www.w3.org/2000/svg" xmlns:xlink="http://www.w3.org/1999/xlink">
	<desc>
			Created with Pixso.
	</desc>
	<defs/>
	<path id="Vector" d="M13.25 29.11C12.98 29.11 12.76 28.89 12.76 28.62C12.76 28.34 12.98 28.12 13.25 28.12C15.2 28.12 17.02 27.37 18.4 25.99L22.33 22.06C23.11 21.28 23.11 20.01 22.33 19.23L21.06 17.96C20.87 17.77 20.87 17.46 21.06 17.27C21.25 17.08 21.57 17.08 21.76 17.27L23.02 18.53C24.19 19.7 24.19 21.59 23.02 22.76L19.1 26.69C17.53 28.25 15.46 29.11 13.25 29.11Z" fill="#FFFFFF" fill-opacity="1.000000" fill-rule="nonzero"/>
	<path id="Vector" d="M20.22 16.92C20.09 16.92 19.96 16.87 19.87 16.78C19.85 16.75 19.83 16.73 19.81 16.7C19.79 16.67 19.78 16.65 19.77 16.62C19.75 16.59 19.75 16.56 19.74 16.52C19.73 16.49 19.73 16.46 19.73 16.43C19.73 16.39 19.73 16.36 19.74 16.33C19.75 16.3 19.75 16.27 19.77 16.24C19.78 16.21 19.79 16.18 19.81 16.15C19.83 16.13 19.85 16.1 19.87 16.08C19.99 15.96 20.16 15.91 20.32 15.95C20.35 15.95 20.38 15.96 20.41 15.97C20.44 15.99 20.47 16 20.49 16.02C20.52 16.04 20.55 16.06 20.57 16.08C20.59 16.1 20.61 16.13 20.63 16.15C20.65 16.18 20.66 16.21 20.67 16.24C20.69 16.27 20.7 16.3 20.7 16.33C20.71 16.36 20.71 16.39 20.71 16.43C20.71 16.46 20.71 16.49 20.7 16.52C20.7 16.56 20.69 16.59 20.67 16.62C20.66 16.65 20.65 16.67 20.63 16.7C20.61 16.73 20.59 16.75 20.57 16.78C20.55 16.8 20.52 16.82 20.49 16.84C20.47 16.85 20.44 16.87 20.41 16.88C20.38 16.89 20.35 16.9 20.32 16.91C20.29 16.92 20.25 16.92 20.22 16.92Z" fill="#FFFFFF" fill-opacity="1.000000" fill-rule="nonzero"/>
	<path id="Vector" d="M11.54 30.82C11.42 30.82 11.29 30.77 11.19 30.67L5.79 25.27C5.6 25.08 5.6 24.76 5.79 24.57L7.66 22.71L7.66 19.14C7.66 18.76 7.81 18.4 8.08 18.12L11.24 14.96C11.51 14.69 11.87 14.54 12.26 14.54L13.64 14.54L14.22 13.96C14.27 13.91 14.31 13.87 14.36 13.83C15.54 12.79 17.33 12.84 18.45 13.96L19.5 15.01C19.69 15.2 19.69 15.51 19.5 15.7C19.31 15.9 18.99 15.9 18.8 15.7L17.75 14.65C17 13.91 15.8 13.87 15.01 14.57C15.01 14.57 15 14.57 15 14.57C14.98 14.6 14.95 14.62 14.91 14.65L14.19 15.38C14.1 15.47 13.97 15.52 13.84 15.52L12.26 15.52C12.14 15.52 12.02 15.57 11.94 15.66L8.77 18.82C8.69 18.91 8.64 19.02 8.64 19.14L8.64 22.91C8.64 23.04 8.59 23.17 8.5 23.26L6.84 24.92L11.89 29.98C12.08 30.17 12.08 30.48 11.89 30.67C11.79 30.77 11.67 30.82 11.54 30.82Z" fill="#FFFFFF" fill-opacity="1.000000" fill-rule="nonzero"/>
	<path id="Vector" d="M10.44 34.05C10.31 34.05 10.18 34 10.09 33.9L2.41 26.22C2.21 26.03 2.21 25.72 2.41 25.53L4.58 23.36C4.77 23.16 5.08 23.16 5.27 23.36L12.95 31.04C13.15 31.23 13.15 31.54 12.95 31.74L10.79 33.9C10.69 34 10.56 34.05 10.44 34.05ZM3.45 25.87L10.44 32.86L11.91 31.39L4.92 24.4L3.45 25.87Z" fill="#FFFFFF" fill-opacity="1.000000" fill-rule="nonzero"/>
	<path id="Vector" d="M3.67 9.49C3.54 9.49 3.41 9.44 3.32 9.35C3.23 9.26 3.17 9.13 3.17 9C3.17 8.87 3.23 8.74 3.32 8.65C3.41 8.56 3.54 8.51 3.67 8.51C3.8 8.51 3.92 8.56 4.01 8.65C4.11 8.74 4.16 8.87 4.16 9C4.16 9.13 4.11 9.26 4.01 9.35C3.92 9.44 3.8 9.49 3.67 9.49Z" fill="#FFFFFF" fill-opacity="1.000000" fill-rule="nonzero"/>
	<path id="Vector" d="M7.37 16.35C7.24 16.35 7.12 16.3 7.02 16.21L5.49 14.68C5.3 14.48 5.3 14.17 5.49 13.98L11.39 8.08C11.58 7.89 11.89 7.89 12.09 8.08L13.62 9.61C13.81 9.8 13.81 10.12 13.62 10.31L7.72 16.21C7.62 16.3 7.5 16.35 7.37 16.35ZM6.54 14.33L7.37 15.16L12.57 9.96L11.74 9.13L6.54 14.33Z" fill="#FFFFFF" fill-opacity="1.000000" fill-rule="nonzero"/>
	<path id="Vector" d="M10.59 16.8C10.46 16.8 10.34 16.76 10.25 16.67L8.35 14.9C8.26 14.8 8.2 14.68 8.2 14.55C8.2 14.41 8.25 14.28 8.34 14.19L11.6 10.93C11.79 10.74 12.1 10.74 12.3 10.93C12.49 11.12 12.49 11.44 12.3 11.63L9.4 14.53L10.58 15.63L11.24 14.96C11.51 14.69 11.87 14.54 12.26 14.54L13.64 14.54L13.99 14.18L12.72 12.82C12.53 12.62 12.54 12.31 12.74 12.13C12.94 11.94 13.25 11.95 13.44 12.15L15.04 13.86C15.13 13.96 15.18 14.09 15.17 14.23C15.17 14.36 15.1 14.49 15 14.57C14.98 14.6 14.95 14.62 14.92 14.65L14.19 15.38C14.1 15.47 13.97 15.52 13.84 15.52L12.26 15.52C12.14 15.52 12.02 15.57 11.94 15.66L10.93 16.66C10.84 16.76 10.71 16.8 10.59 16.8Z" fill="#FFFFFF" fill-opacity="1.000000" fill-rule="nonzero"/>
	<path id="Vector" d="M23.63 29.02C23.51 29.02 23.39 28.97 23.29 28.89L21.05 26.78C20.85 26.59 20.84 26.28 21.02 26.08C21.21 25.89 21.52 25.88 21.72 26.06L23.62 27.84L25.25 26.21L22.51 23.28L20.33 25.46C20.13 25.65 19.82 25.65 19.63 25.46C19.44 25.26 19.44 24.95 19.63 24.76L22.17 22.22C22.26 22.13 22.39 22.08 22.53 22.08C22.66 22.08 22.79 22.13 22.88 22.23L26.3 25.88C26.48 26.08 26.47 26.38 26.28 26.57L23.98 28.87C23.88 28.97 23.76 29.02 23.63 29.02Z" fill="#FFFFFF" fill-opacity="1.000000" fill-rule="nonzero"/>
	<path id="Vector" d="M1.62 19.05C1.48 19.05 1.36 18.99 1.27 18.9L1.25 18.89C-1 16.63 -1 12.97 1.25 10.72L2.22 9.75C2.41 9.56 2.72 9.56 2.91 9.75C3.11 9.95 3.11 10.26 2.91 10.45L1.95 11.42C0.19 13.17 0.09 15.96 1.63 17.84L12.61 6.86L9.55 3.81L5.19 8.18C4.99 8.37 4.68 8.37 4.49 8.18C4.3 7.98 4.3 7.67 4.49 7.48L9.2 2.76C9.4 2.57 9.71 2.57 9.9 2.76L13.65 6.52C13.75 6.61 13.8 6.73 13.8 6.86C13.8 7 13.75 7.12 13.65 7.21L1.96 18.9C1.87 18.99 1.75 19.05 1.62 19.05Z" fill="#FFFFFF" fill-opacity="1.000000" fill-rule="nonzero"/>
	<path id="Vector" d="M14.98 9.03C14.85 9.03 14.72 8.98 14.63 8.89L7.74 1.99C7.54 1.8 7.54 1.49 7.74 1.3L8.37 0.66C9.33 -0.3 10.89 -0.3 11.86 0.66L15.96 4.77C16.42 5.23 16.68 5.85 16.68 6.51C16.68 7.17 16.42 7.79 15.96 8.26L15.33 8.89C15.24 8.98 15.11 9.03 14.98 9.03ZM8.78 1.64L14.98 7.84L15.26 7.56C15.54 7.28 15.7 6.91 15.7 6.51C15.7 6.12 15.54 5.74 15.26 5.46L11.16 1.36C10.58 0.78 9.64 0.78 9.06 1.36L8.78 1.64Z" fill="#FFFFFF" fill-opacity="1.000000" fill-rule="nonzero"/>
</svg>
