<svg width="23.000000" height="33.000000" viewBox="0 0 23 33" fill="none" xmlns="http://www.w3.org/2000/svg" xmlns:xlink="http://www.w3.org/1999/xlink">
	<desc>
			Created with Pixso.
	</desc>
	<defs/>
	<path id="Vector" d="M20.74 13.36L20.74 16.37L18.12 17.88L16.62 20.49L16.23 20.49C16.23 20.49 16.24 20.49 16.24 20.5L16.24 31.75C16.24 31.75 16.23 31.75 16.23 31.75C16.24 31.94 16.17 32.14 16.02 32.28C15.88 32.43 15.68 32.5 15.49 32.49C15.49 32.49 15.49 32.5 15.49 32.5C15.25 32.5 15.04 32.38 14.9 32.2L10.99 28.28L7.07 32.2C6.93 32.38 6.73 32.5 6.49 32.5C6.48 32.5 6.48 32.49 6.48 32.49C6.29 32.5 6.09 32.43 5.95 32.28C5.8 32.14 5.73 31.94 5.74 31.75C5.74 31.75 5.74 31.75 5.74 31.75L5.74 20.5C5.74 20.49 5.74 20.49 5.74 20.49L5.36 20.49L3.85 17.88L1.23 16.37L1.23 13.36L-0.27 10.75L1.23 8.13L1.23 5.12L3.85 3.61L5.36 1L8.37 1L10.98 -0.51L13.6 1L16.62 1L18.12 3.61L20.74 5.12L20.74 8.13L22.25 10.75L20.74 13.36ZM7.24 20.5L7.24 29.96L10.38 26.82C10.4 26.78 10.42 26.74 10.45 26.71C10.6 26.56 10.79 26.49 10.99 26.5C11.18 26.49 11.37 26.56 11.52 26.71C11.55 26.74 11.57 26.78 11.59 26.82L14.74 29.96L14.74 20.5C14.74 20.49 14.74 20.49 14.74 20.49L13.6 20.49L10.99 22L8.37 20.49L7.23 20.49C7.23 20.49 7.24 20.49 7.24 20.5ZM19.24 8.53L19.24 5.98L17.02 4.7L15.75 2.5L13.2 2.5L10.99 1.22L8.78 2.5L6.22 2.5L4.95 4.7L2.74 5.98L2.74 8.53L1.46 10.75L2.74 12.96L2.74 15.51L4.95 16.78L6.22 18.99L8.78 18.99L10.99 20.27L13.2 18.99L15.75 18.99L17.02 16.78L19.23 15.51L19.23 12.96L20.51 10.75L19.24 8.53Z" fill="#FFFFFF" fill-opacity="1.000000" fill-rule="evenodd"/>
</svg>
