<svg width="20.000000" height="20.000000" viewBox="0 0 20 20" fill="none" xmlns="http://www.w3.org/2000/svg" xmlns:xlink="http://www.w3.org/1999/xlink">
	<desc>
			Created with Pixso.
	</desc>
	<defs/>
	<path id="Vector" d="M10 1.8C12.66 1.8 12.98 1.81 14.04 1.86C16.75 1.98 18.01 3.26 18.14 5.95C18.18 7.01 18.19 7.33 18.19 10C18.19 12.67 18.18 12.98 18.14 14.04C18.01 16.72 16.75 18.01 14.04 18.14C12.98 18.18 12.67 18.19 10 18.19C7.33 18.19 7.01 18.18 5.95 18.14C3.24 18.01 1.98 16.72 1.86 14.04C1.81 12.98 1.8 12.67 1.8 10C1.8 7.33 1.81 7.01 1.86 5.95C1.98 3.26 3.24 1.98 5.95 1.86C7.01 1.81 7.33 1.8 10 1.8ZM10 0C7.28 0 6.94 0.01 5.87 0.05C2.24 0.22 0.22 2.24 0.06 5.87C0.01 6.94 0 7.28 0 10C0 12.71 0.01 13.05 0.05 14.12C0.22 17.75 2.24 19.77 5.87 19.94C6.94 19.98 7.28 20 10 20C12.71 20 13.05 19.98 14.12 19.94C17.75 19.77 19.77 17.75 19.93 14.12C19.98 13.05 20 12.71 20 10C20 7.28 19.98 6.94 19.94 5.87C19.77 2.24 17.75 0.22 14.12 0.06C13.05 0.01 12.71 0 10 0L10 0ZM10 4.86C7.16 4.86 4.86 7.16 4.86 10C4.86 12.83 7.16 15.13 10 15.13C12.83 15.13 15.13 12.83 15.13 10C15.13 7.16 12.83 4.86 10 4.86ZM10 13.33C8.15 13.33 6.66 11.84 6.66 10C6.66 8.15 8.15 6.66 10 6.66C11.84 6.66 13.33 8.15 13.33 10C13.33 11.84 11.84 13.33 10 13.33ZM15.33 3.46C14.67 3.46 14.13 4 14.13 4.66C14.13 5.32 14.67 5.86 15.33 5.86C16 5.86 16.53 5.32 16.53 4.66C16.53 4 16 3.46 15.33 3.46Z" fill="#FFFFFF" fill-opacity="1.000000" fill-rule="nonzero"/>
</svg>
