<svg width="35.000000" height="30.000000" viewBox="0 0 35 30" fill="none" xmlns="http://www.w3.org/2000/svg" xmlns:xlink="http://www.w3.org/1999/xlink">
	<desc>
			Created with Pixso.
	</desc>
	<defs/>
	<path id="Vector" d="M34.25 26C34.25 28.07 32.57 29.75 30.5 29.75L3.5 29.75C1.42 29.75 -0.25 28.07 -0.25 26L-0.25 4.25C-0.25 2.59 1.09 1.25 2.75 1.25L17.87 1.25L23.95 -0.96C24.33 -1.1 24.76 -0.9 24.9 -0.51L25.54 1.25L28.25 1.25C29.9 1.25 31.25 2.59 31.25 4.25L31.25 5.75C32.9 5.75 34.25 7.09 34.25 8.75L34.25 26ZM2.75 2.75C1.92 2.75 1.25 3.42 1.25 4.25C1.25 5.07 1.92 5.75 2.75 5.75L5.33 5.75L5.47 5.75C5.48 5.74 5.49 5.73 5.5 5.73L13.73 2.75L2.75 2.75ZM24.55 2.88L23.76 0.69L23.76 0.69L22.22 1.25L22.22 1.25L18.08 2.75L18.08 2.75L9.8 5.75L25.59 5.75L24.55 2.88ZM29.75 4.25C29.75 3.42 29.07 2.75 28.25 2.75L26.08 2.75L27.17 5.75L29.75 5.75L29.75 4.25ZM31.25 7.25L2.75 7.25C2.2 7.25 1.69 7.09 1.25 6.83L1.25 26C1.25 27.24 2.25 28.25 3.5 28.25L30.5 28.25C31.74 28.25 32.75 27.24 32.75 26L32.75 20.75L29.75 20.75C28.09 20.75 26.75 19.4 26.75 17.75C26.75 16.09 28.09 14.75 29.75 14.75L32.75 14.75L32.75 8.75C32.75 7.92 32.07 7.25 31.25 7.25ZM32.75 19.25L32.75 16.25L29.75 16.25C28.92 16.25 28.25 16.92 28.25 17.75C28.25 18.57 28.92 19.25 29.75 19.25L32.75 19.25ZM29.75 17L31.25 17L31.25 18.5L29.75 18.5L29.75 17Z" fill="#FFFFFF" fill-opacity="1.000000" fill-rule="evenodd"/>
</svg>
