<svg width="27.000000" height="27.000000" viewBox="0 0 27 27" fill="none" xmlns="http://www.w3.org/2000/svg" xmlns:xlink="http://www.w3.org/1999/xlink">
	<desc>
			Created with Pixso.
	</desc>
	<defs/>
	<path id="Vector" d="M25.91 17.23L15.69 17.23C15.41 17.23 15.19 17.01 15.19 16.74C15.19 16.47 15.41 16.25 15.69 16.25L25.42 16.25L25.42 13.35L16.18 13.35L16.18 14.19C16.18 14.46 15.96 14.68 15.69 14.68C15.41 14.68 15.19 14.46 15.19 14.19L15.19 12.86C15.19 12.59 15.41 12.37 15.69 12.37L25.91 12.37C26.18 12.37 26.4 12.59 26.4 12.86L26.4 16.74C26.4 17.01 26.18 17.23 25.91 17.23Z" fill="#FFFFFF" fill-opacity="1.000000" fill-rule="nonzero"/>
	<path id="Vector" d="M10.3 17.23L0.08 17.23C-0.19 17.23 -0.41 17.01 -0.41 16.74L-0.41 12.86C-0.41 12.59 -0.19 12.37 0.08 12.37L3.99 12.37C4.26 12.37 4.48 12.59 4.48 12.86C4.48 13.13 4.26 13.35 3.99 13.35L0.57 13.35L0.57 16.25L9.81 16.25L9.81 13.35L7.12 13.35C6.85 13.35 6.63 13.13 6.63 12.86C6.63 12.59 6.85 12.37 7.12 12.37L10.3 12.37C10.57 12.37 10.79 12.59 10.79 12.86L10.79 16.74C10.79 17.01 10.57 17.23 10.3 17.23Z" fill="#FFFFFF" fill-opacity="1.000000" fill-rule="nonzero"/>
	<path id="Vector" d="M25.91 23.71L15.69 23.71C15.41 23.71 15.19 23.49 15.19 23.21L15.19 19.33C15.19 19.06 15.41 18.84 15.69 18.84L25.91 18.84C26.18 18.84 26.4 19.06 26.4 19.33L26.4 23.21C26.4 23.49 26.18 23.71 25.91 23.71ZM16.18 22.72L25.42 22.72L25.42 19.83L16.18 19.83L16.18 22.72Z" fill="#FFFFFF" fill-opacity="1.000000" fill-rule="nonzero"/>
	<path id="Vector" d="M10.3 23.71C10.03 23.71 9.81 23.49 9.81 23.21L9.81 19.83L0.57 19.83L0.57 22.72L8.1 22.72C8.37 22.72 8.59 22.94 8.59 23.21C8.59 23.49 8.37 23.71 8.1 23.71L0.08 23.71C-0.19 23.71 -0.41 23.49 -0.41 23.21L-0.41 19.33C-0.41 19.06 -0.19 18.84 0.08 18.84L10.3 18.84C10.57 18.84 10.79 19.06 10.79 19.33L10.79 23.21C10.79 23.49 10.57 23.71 10.3 23.71Z" fill="#FFFFFF" fill-opacity="1.000000" fill-rule="nonzero"/>
	<path id="Vector" d="M25.91 26.94L0.08 26.94C-0.19 26.94 -0.41 26.72 -0.41 26.45L-0.41 10.77C-0.41 10.62 -0.34 10.47 -0.21 10.37C1.86 8.85 3.09 6.4 3.09 3.83L3.09 -0.46C3.09 -0.73 3.31 -0.95 3.58 -0.95L7.56 -0.95C7.84 -0.95 8.06 -0.73 8.06 -0.46C8.06 2.27 10.27 4.48 13 4.48C14.92 4.48 16.69 3.35 17.49 1.59C17.6 1.35 17.89 1.24 18.14 1.35C18.39 1.47 18.5 1.76 18.38 2C17.42 4.11 15.31 5.47 13 5.47C9.89 5.47 7.34 3.07 7.09 0.04L4.07 0.04L4.07 3.83C4.07 6.63 2.77 9.29 0.57 11.02L0.57 25.96L25.42 25.96L25.42 11.01C24.36 10.19 23.49 9.13 22.89 7.94C22.25 6.67 21.92 5.25 21.92 3.83L21.92 0.03L18.43 0.03C18.15 0.03 17.93 -0.19 17.93 -0.46C17.93 -0.73 18.15 -0.95 18.43 -0.95L22.41 -0.95C22.68 -0.95 22.9 -0.73 22.9 -0.46L22.9 3.83C22.9 5.1 23.2 6.36 23.77 7.5C24.34 8.63 25.18 9.62 26.2 10.37C26.33 10.47 26.4 10.62 26.4 10.77L26.4 26.45C26.4 26.72 26.18 26.94 25.91 26.94Z" fill="#FFFFFF" fill-opacity="1.000000" fill-rule="nonzero"/>
	<path id="Vector" d="M13 26.94C12.72 26.94 12.5 26.72 12.5 26.45L12.5 4.97C12.5 4.7 12.72 4.48 13 4.48C13.27 4.48 13.49 4.7 13.49 4.97L13.49 26.45C13.49 26.72 13.27 26.94 13 26.94Z" fill="#FFFFFF" fill-opacity="1.000000" fill-rule="nonzero"/>
	<path id="Vector" d="M5.52 13.35C5.49 13.35 5.45 13.35 5.42 13.34C5.39 13.33 5.36 13.32 5.33 13.31C5.3 13.3 5.27 13.28 5.25 13.27C5.22 13.25 5.19 13.23 5.17 13.21C5.08 13.11 5.03 12.99 5.03 12.86C5.03 12.83 5.03 12.79 5.04 12.76C5.04 12.73 5.05 12.7 5.07 12.67C5.08 12.64 5.09 12.61 5.11 12.58C5.13 12.56 5.15 12.53 5.17 12.51C5.19 12.49 5.22 12.47 5.25 12.45C5.27 12.43 5.3 12.41 5.33 12.4C5.36 12.39 5.39 12.38 5.42 12.37C5.49 12.36 5.55 12.36 5.62 12.37C5.65 12.38 5.68 12.39 5.71 12.4C5.74 12.41 5.77 12.43 5.79 12.45C5.82 12.47 5.84 12.49 5.87 12.51C5.96 12.6 6.01 12.73 6.01 12.86C6.01 12.99 5.96 13.11 5.87 13.21C5.84 13.23 5.82 13.25 5.79 13.27C5.77 13.28 5.74 13.3 5.71 13.31C5.68 13.32 5.65 13.33 5.62 13.34C5.58 13.35 5.55 13.35 5.52 13.35Z" fill="#FFFFFF" fill-opacity="1.000000" fill-rule="nonzero"/>
	<path id="Vector" d="M19.45 9.22L16.42 9.22C16.15 9.22 15.93 9 15.93 8.73C15.93 8.46 16.15 8.24 16.42 8.24L19.45 8.24C19.72 8.24 19.94 8.46 19.94 8.73C19.94 9 19.72 9.22 19.45 9.22Z" fill="#FFFFFF" fill-opacity="1.000000" fill-rule="nonzero"/>
	<path id="Vector" d="M6.6 9.22C6.47 9.22 6.34 9.17 6.25 9.08C6.16 8.99 6.11 8.86 6.11 8.73C6.11 8.6 6.16 8.47 6.25 8.38C6.37 8.27 6.54 8.22 6.7 8.25C6.73 8.25 6.76 8.26 6.79 8.28C6.82 8.29 6.85 8.3 6.87 8.32C6.9 8.34 6.93 8.36 6.95 8.38C7.04 8.47 7.09 8.6 7.09 8.73C7.09 8.86 7.04 8.99 6.95 9.08C6.93 9.1 6.9 9.12 6.87 9.14C6.85 9.16 6.82 9.17 6.79 9.18C6.76 9.2 6.73 9.21 6.7 9.21C6.66 9.22 6.63 9.22 6.6 9.22Z" fill="#FFFFFF" fill-opacity="1.000000" fill-rule="nonzero"/>
	<path id="Vector" d="M8.46 9.22C8.43 9.22 8.4 9.22 8.37 9.21C8.34 9.21 8.31 9.2 8.28 9.18C8.25 9.17 8.22 9.16 8.19 9.14C8.16 9.12 8.14 9.1 8.12 9.08C8.09 9.06 8.07 9.03 8.06 9C8.04 8.98 8.02 8.95 8.01 8.92C8 8.89 7.99 8.86 7.98 8.83C7.98 8.79 7.97 8.76 7.97 8.73C7.97 8.6 8.03 8.47 8.12 8.38C8.14 8.36 8.16 8.34 8.19 8.32C8.22 8.3 8.25 8.29 8.28 8.28C8.31 8.26 8.34 8.25 8.37 8.25C8.53 8.22 8.7 8.27 8.81 8.38C8.9 8.47 8.96 8.6 8.96 8.73C8.96 8.76 8.95 8.79 8.95 8.83C8.94 8.86 8.93 8.89 8.92 8.92C8.91 8.95 8.89 8.98 8.87 9C8.86 9.03 8.83 9.06 8.81 9.08C8.79 9.1 8.76 9.12 8.74 9.14C8.71 9.16 8.68 9.17 8.65 9.18C8.62 9.2 8.59 9.21 8.56 9.21C8.53 9.22 8.5 9.22 8.46 9.22Z" fill="#FFFFFF" fill-opacity="1.000000" fill-rule="nonzero"/>
	<path id="Vector" d="M10.3 9.22C10.27 9.22 10.24 9.22 10.21 9.21C10.18 9.21 10.14 9.2 10.12 9.18C10.09 9.17 10.06 9.16 10.03 9.14C10 9.12 9.98 9.1 9.96 9.08C9.86 8.99 9.81 8.86 9.81 8.73C9.81 8.6 9.86 8.47 9.96 8.38C9.98 8.36 10 8.34 10.03 8.32C10.06 8.3 10.09 8.29 10.12 8.28C10.14 8.26 10.18 8.25 10.21 8.25C10.27 8.24 10.34 8.24 10.4 8.25C10.43 8.25 10.46 8.26 10.49 8.28C10.52 8.29 10.55 8.3 10.58 8.32C10.6 8.34 10.63 8.36 10.65 8.38C10.74 8.47 10.8 8.6 10.8 8.73C10.8 8.86 10.74 8.99 10.65 9.08C10.63 9.1 10.6 9.12 10.58 9.14C10.55 9.16 10.52 9.17 10.49 9.18C10.46 9.2 10.43 9.21 10.4 9.21C10.37 9.22 10.33 9.22 10.3 9.22Z" fill="#FFFFFF" fill-opacity="1.000000" fill-rule="nonzero"/>
</svg>
