<svg width="23.000000" height="23.000000" viewBox="0 0 23 23" fill="none" xmlns="http://www.w3.org/2000/svg" xmlns:xlink="http://www.w3.org/1999/xlink">
	<desc>
			Created with Pixso.
	</desc>
	<defs/>
	<path id="Vector" d="M4.28 9.49C6.08 13.03 8.97 15.92 12.51 17.72L15.26 14.96C15.61 14.62 16.1 14.52 16.53 14.66C17.93 15.12 19.44 15.37 21 15.37C21.69 15.37 22.25 15.93 22.25 16.62L22.25 21C22.25 21.69 21.69 22.25 21 22.25C9.26 22.25 -0.25 12.73 -0.25 1C-0.25 0.3 0.31 -0.25 1 -0.25L5.37 -0.25C6.06 -0.25 6.62 0.3 6.62 1C6.62 2.55 6.87 4.06 7.33 5.46C7.47 5.89 7.37 6.38 7.03 6.73L4.28 9.49Z" fill="#2DA6DD" fill-opacity="1.000000" fill-rule="nonzero"/>
</svg>
