<svg width="29.000000" height="33.000000" viewBox="0 0 29 33" fill="none" xmlns="http://www.w3.org/2000/svg" xmlns:xlink="http://www.w3.org/1999/xlink">
	<desc>
			Created with Pixso.
	</desc>
	<defs/>
	<path id="Vector" d="M23 11.5C23 15.69 20.12 19.2 16.25 20.2L16.25 28L20.75 28C21.16 28 21.5 28.33 21.5 28.75C21.5 29.16 21.16 29.5 20.75 29.5L7.25 29.5C6.83 29.5 6.5 29.16 6.5 28.75C6.5 28.33 6.83 28 7.25 28L11.75 28L11.75 20.2C7.87 19.2 5 15.69 5 11.5C2.1 11.5 -0.25 9.14 -0.25 6.25L-0.25 4.75C-0.25 4.33 0.08 4 0.5 4L5 4L5 3.25C5 2 3.99 1 2.75 1C2.33 1 2 0.66 2 0.25C2 -0.17 2.33 -0.5 2.75 -0.5L25.25 -0.5C25.66 -0.5 26 -0.17 26 0.25C26 0.66 25.66 1 25.25 1C24 1 23 2 23 3.25L23 4L27.5 4C27.91 4 28.25 4.33 28.25 4.75L28.25 6.25C28.25 9.14 25.89 11.5 23 11.5ZM13.25 28L14.75 28L14.75 20.46C14.5 20.48 14.25 20.5 14 20.5C13.74 20.5 13.49 20.48 13.25 20.46L13.25 28ZM1.25 5.5L1.25 6.25C1.25 8.32 2.92 10 5 10L5 5.5L1.25 5.5ZM5.73 1C6.2 1.62 6.5 2.4 6.5 3.25L6.5 11.5C6.5 15.64 9.85 19 14 19C18.14 19 21.5 15.64 21.5 11.5L21.5 3.25C21.5 2.4 21.79 1.62 22.26 1L5.73 1ZM26.75 5.5L23 5.5L23 10C25.07 10 26.75 8.32 26.75 6.25L26.75 5.5ZM5 31L23 31C23.41 31 23.75 31.33 23.75 31.75C23.75 32.16 23.41 32.5 23 32.5L5 32.5C4.58 32.5 4.25 32.16 4.25 31.75C4.25 31.33 4.58 31 5 31Z" fill="#FFFFFF" fill-opacity="1.000000" fill-rule="evenodd"/>
</svg>
