<svg width="0" height="0" style="visibility: hidden; position: absolute;" aria-hidden="true">
    <symbol id="address" width="23.000000" height="23.000000" viewBox="0 0 23 23" xmlns="http://www.w3.org/2000/svg">
        <defs />
        <path id="Vector__address"
            d="M11 -0.41C17.44 -0.41 22.66 4.81 22.66 11.26C22.66 17.7 17.44 22.92 11 22.92C4.55 22.92 -0.67 17.7 -0.67 11.26C-0.67 4.81 4.55 -0.41 11 -0.41ZM11 1.34C5.52 1.34 1.08 5.78 1.08 11.26C1.08 16.73 5.52 21.17 11 21.17C16.47 21.17 20.91 16.73 20.91 11.26C20.91 5.78 16.47 1.34 11 1.34ZM10.99 9.5C11.43 9.5 11.8 9.83 11.86 10.26L11.87 10.38L11.87 16.8C11.87 17.28 11.48 17.67 11 17.67C10.55 17.67 10.19 17.34 10.13 16.92L10.12 16.8L10.12 10.38C10.12 9.9 10.51 9.51 10.99 9.5ZM11 5.42C11.64 5.42 12.16 5.95 12.16 6.59C12.16 7.23 11.64 7.75 11 7.75C10.35 7.75 9.83 7.23 9.83 6.59C9.83 5.95 10.35 5.42 11 5.42Z"
            fill="#2CA6DE" fill-opacity="1.000000" fill-rule="nonzero" />
    </symbol>
    <symbol id="calc" viewBox="0 0 26 26" xmlns="http://www.w3.org/2000/svg">
        <defs>
            <clipPath id="clip8_459__calc">
                <rect id="svg 1__calc" width="26.000000" height="26.000000" fill="white" fill-opacity="0" />
            </clipPath>
        </defs>
        <rect id="svg 1__calc" width="26.000000" height="26.000000" fill-opacity="0" />
        <g clip-path="url(#clip8_459__calc)">
            <path id="Vector__calc" d="M5.95 16.46L10.02 20.52" stroke="#254152" stroke-opacity="1.000000"
                stroke-width="1.000000" stroke-linecap="round" />
            <path id="Vector__calc" d="M10.02 16.46L5.95 20.52" stroke="#254152" stroke-opacity="1.000000"
                stroke-width="1.000000" stroke-linecap="round" />
            <path id="Vector__calc" d="M15.43 17L20.85 17" stroke="#254152" stroke-opacity="1.000000"
                stroke-width="1.000000" stroke-linecap="round" />
            <path id="Vector__calc" d="M15.43 19.03L20.85 19.03" stroke="#254152" stroke-opacity="1.000000"
                stroke-width="1.000000" stroke-linecap="round" />
            <path id="Vector__calc" d="M7.81 5.09L13.56 5.09" stroke="#254152" stroke-opacity="1.000000"
                stroke-width="1.000000" stroke-linecap="round" />
            <path id="Vector__calc" d="M10.69 7.97L4.94 7.97" stroke="#254152" stroke-opacity="1.000000"
                stroke-width="1.000000" stroke-linecap="round" />
            <path id="Vector__calc" d="M20.85 8.47L15.43 8.47" stroke="#254152" stroke-opacity="1.000000"
                stroke-width="1.000000" stroke-linecap="round" />
        </g>
    </symbol>
    <symbol id="completedWork" viewBox="0 0 33 33" xmlns="http://www.w3.org/2000/svg">
        <defs />
        <path id="Vector__completedWork"
            d="M9.06 13.9C8.93 13.9 8.8 13.85 8.71 13.76L6.83 11.87L3.13 11.87C3 11.87 2.87 11.82 2.78 11.73L2.01 10.96C1.81 10.76 1.81 10.45 2.01 10.26C2.2 10.07 2.51 10.07 2.7 10.26L3.33 10.89L7.03 10.89C7.16 10.89 7.28 10.94 7.38 11.04L9.06 12.71L11.48 10.29C11.75 10.02 12.12 9.87 12.5 9.87L13.91 9.87L14.06 9.71C14.26 9.52 14.57 9.52 14.76 9.71C14.95 9.9 14.95 10.22 14.76 10.41L14.46 10.71C14.37 10.8 14.25 10.85 14.11 10.85L12.5 10.85C12.38 10.85 12.26 10.9 12.17 10.99L9.4 13.76C9.31 13.85 9.18 13.9 9.06 13.9Z"
            fill-opacity="1.000000" fill-rule="nonzero" />
        <path id="Vector__completedWork"
            d="M0.07 8.81C-0.06 8.81 -0.18 8.77 -0.28 8.67L-0.64 8.31C-0.73 8.22 -0.78 8.09 -0.78 7.96L-0.78 3.13C-0.78 3 -0.73 2.87 -0.64 2.78L-0.56 2.7C-0.37 2.51 -0.06 2.51 0.13 2.7L4.61 7.18L7.18 4.61L2.7 0.13C2.51 -0.06 2.51 -0.37 2.7 -0.56L2.78 -0.64C2.87 -0.73 3 -0.78 3.13 -0.78L7.96 -0.78C8.09 -0.78 8.22 -0.73 8.31 -0.64L11.73 2.78C11.82 2.87 11.87 3 11.87 3.13L11.87 6.82L12.83 7.79C13.03 7.98 13.03 8.29 12.83 8.48C12.64 8.67 12.33 8.67 12.14 8.48L11.03 7.38C10.94 7.28 10.89 7.16 10.89 7.03L10.89 3.33L7.76 0.2L4.16 0.2L8.22 4.26C8.41 4.45 8.41 4.76 8.22 4.95L4.95 8.22C4.86 8.31 4.74 8.37 4.61 8.37C4.48 8.37 4.35 8.31 4.26 8.22L0.2 4.16L0.2 7.76L0.41 7.97C0.61 8.16 0.61 8.48 0.41 8.67C0.32 8.77 0.19 8.81 0.07 8.81Z"
            fill-opacity="1.000000" fill-rule="nonzero" />
        <path id="Vector__completedWork"
            d="M1.17 9.92C1.04 9.92 0.92 9.87 0.82 9.77C0.73 9.68 0.68 9.56 0.68 9.43C0.68 9.39 0.68 9.36 0.69 9.33C0.7 9.3 0.7 9.27 0.72 9.24C0.73 9.21 0.75 9.18 0.76 9.15C0.78 9.13 0.8 9.1 0.82 9.08C0.92 8.99 1.04 8.93 1.17 8.93C1.3 8.93 1.43 8.99 1.52 9.08C1.54 9.1 1.56 9.13 1.58 9.15C1.6 9.18 1.61 9.21 1.63 9.24C1.64 9.27 1.65 9.3 1.65 9.33C1.66 9.36 1.66 9.39 1.66 9.43C1.66 9.55 1.61 9.68 1.52 9.77C1.5 9.8 1.47 9.82 1.45 9.83C1.42 9.85 1.39 9.87 1.36 9.88C1.33 9.89 1.3 9.9 1.27 9.91C1.24 9.91 1.2 9.92 1.17 9.92Z"
            fill-opacity="1.000000" fill-rule="nonzero" />
        <path id="Vector__completedWork"
            d="M28.86 32.77L24.03 32.77C23.9 32.77 23.77 32.72 23.68 32.63L20.26 29.21C20.17 29.12 20.12 28.99 20.12 28.86L20.12 25.16L19.68 24.73C19.49 24.54 19.49 24.23 19.68 24.04C19.88 23.85 20.19 23.85 20.38 24.04L20.96 24.61C21.05 24.71 21.1 24.83 21.1 24.96L21.1 28.66L24.23 31.79L27.83 31.79L23.77 27.73C23.68 27.64 23.62 27.51 23.62 27.38C23.62 27.25 23.68 27.13 23.77 27.04L27.04 23.77C27.23 23.58 27.54 23.58 27.73 23.77L31.79 27.83L31.79 24.23L28.66 21.1L24.96 21.1C24.83 21.1 24.71 21.05 24.61 20.96L22.66 19L19.45 22.21C19.17 22.49 18.86 22.76 18.54 23C18.32 23.16 18.01 23.11 17.85 22.9C17.69 22.68 17.74 22.37 17.95 22.21C18.23 22 18.5 21.76 18.75 21.51L22.3 17.97C22.3 17.97 22.3 17.96 22.31 17.96L22.32 17.95C22.51 17.76 22.82 17.77 23 17.96L25.16 20.12L28.86 20.12C28.99 20.12 29.12 20.17 29.21 20.26L32.63 23.68C32.72 23.77 32.77 23.9 32.77 24.03L32.77 28.86C32.77 28.99 32.72 29.12 32.63 29.21L32.55 29.29C32.46 29.38 32.33 29.43 32.2 29.43C32.07 29.43 31.95 29.38 31.85 29.29L27.38 24.81L24.81 27.38L29.28 31.86C29.38 31.95 29.43 32.08 29.43 32.21C29.43 32.34 29.38 32.46 29.28 32.56L29.21 32.63C29.12 32.72 28.99 32.77 28.86 32.77Z"
            fill-opacity="1.000000" fill-rule="nonzero" />
        <path id="Vector__completedWork"
            d="M13.51 24.67C13.24 24.67 13.02 24.45 13.02 24.17C13.02 23.9 13.24 23.68 13.51 23.68C15.1 23.68 16.68 23.16 17.95 22.21C18.23 22 18.5 21.76 18.75 21.51L22.3 17.97C22.3 17.97 22.3 17.96 22.31 17.96L22.32 17.95L22.75 17.52C23.14 17.13 23.35 16.62 23.35 16.07C23.35 15.52 23.14 15.01 22.75 14.62L21.46 13.34C21.27 13.14 21.27 12.83 21.46 12.64C21.65 12.45 21.97 12.45 22.16 12.64L23.45 13.93C24.02 14.5 24.33 15.26 24.33 16.07C24.33 16.88 24.02 17.64 23.45 18.21L23.01 18.65C23 18.66 23 18.66 23 18.66L22.99 18.67L19.45 22.21C19.17 22.49 18.86 22.76 18.54 23C17.1 24.07 15.31 24.67 13.51 24.67Z"
            fill-opacity="1.000000" fill-rule="nonzero" />
        <path id="Vector__completedWork"
            d="M20.6 12.27C20.47 12.27 20.35 12.22 20.25 12.13C20.23 12.1 20.21 12.08 20.19 12.05C20.17 12.03 20.16 12 20.15 11.97C20.13 11.94 20.13 11.91 20.12 11.87C20.11 11.84 20.11 11.81 20.11 11.78C20.11 11.65 20.16 11.52 20.25 11.43C20.37 11.32 20.54 11.26 20.7 11.3C20.73 11.3 20.76 11.31 20.79 11.32C20.82 11.34 20.85 11.35 20.87 11.37C20.9 11.39 20.93 11.41 20.95 11.43C21.04 11.52 21.09 11.65 21.09 11.78C21.09 11.81 21.09 11.84 21.08 11.87C21.08 11.91 21.07 11.94 21.06 11.97C21.04 12 21.03 12.03 21.01 12.05C20.99 12.08 20.97 12.1 20.95 12.13C20.93 12.15 20.9 12.17 20.87 12.19C20.85 12.21 20.82 12.22 20.79 12.23C20.76 12.25 20.73 12.25 20.7 12.26C20.67 12.27 20.63 12.27 20.6 12.27Z"
            fill-opacity="1.000000" fill-rule="nonzero" />
        <path id="Vector__completedWork"
            d="M11.78 26.41C11.65 26.41 11.52 26.36 11.43 26.26L5.93 20.77C5.74 20.58 5.74 20.26 5.93 20.07L7.83 18.17L7.83 14.54C7.83 14.16 7.99 13.78 8.26 13.51L11.48 10.29C11.75 10.02 12.12 9.87 12.5 9.87L13.91 9.87L14.5 9.27C14.54 9.24 14.59 9.19 14.65 9.14C15.84 8.09 17.66 8.14 18.79 9.27L19.86 10.34C20.05 10.53 20.05 10.85 19.86 11.04C19.67 11.23 19.36 11.23 19.16 11.04L18.1 9.97C17.33 9.21 16.1 9.17 15.29 9.88C15.29 9.88 15.29 9.89 15.29 9.89C15.26 9.91 15.23 9.94 15.2 9.97L14.46 10.71C14.37 10.8 14.25 10.85 14.12 10.85L12.5 10.85C12.38 10.85 12.26 10.9 12.17 10.99L8.95 14.21C8.87 14.29 8.82 14.42 8.82 14.54L8.82 18.38C8.82 18.51 8.76 18.63 8.67 18.72L6.98 20.42L12.12 25.56C12.32 25.76 12.32 26.07 12.12 26.26C12.03 26.36 11.9 26.41 11.78 26.41Z"
            fill-opacity="1.000000" fill-rule="nonzero" />
        <path id="Vector__completedWork"
            d="M10.65 29.69C10.52 29.69 10.4 29.64 10.3 29.55L2.49 21.73C2.3 21.54 2.3 21.23 2.49 21.04L4.7 18.83C4.89 18.64 5.2 18.64 5.39 18.83L13.21 26.65C13.4 26.84 13.4 27.15 13.21 27.34L11 29.55C10.91 29.64 10.78 29.69 10.65 29.69ZM3.53 21.39L10.65 28.5L12.16 26.99L5.04 19.88L3.53 21.39Z"
            fill-opacity="1.000000" fill-rule="nonzero" />
    </symbol>
    <symbol id="contractFacilities" viewBox="0 0 29 35" xmlns="http://www.w3.org/2000/svg">
        <defs />
        <path id="Vector__contractFacilities"
            d="M7.79 34.05C7.75 34.05 7.72 34.04 7.69 34.04C7.66 34.03 7.63 34.02 7.6 34.01C7.57 34 7.54 33.98 7.51 33.96C7.49 33.94 7.46 33.92 7.44 33.9C7.35 33.81 7.29 33.68 7.29 33.55C7.29 33.52 7.3 33.49 7.3 33.46C7.31 33.43 7.32 33.4 7.33 33.37C7.34 33.33 7.36 33.31 7.38 33.28C7.39 33.25 7.41 33.23 7.44 33.21C7.46 33.18 7.49 33.16 7.51 33.14C7.54 33.13 7.57 33.11 7.6 33.1C7.63 33.09 7.66 33.08 7.69 33.07C7.75 33.06 7.82 33.06 7.88 33.07C7.91 33.08 7.94 33.09 7.97 33.1C8 33.11 8.03 33.13 8.06 33.14C8.08 33.16 8.11 33.18 8.13 33.21C8.16 33.23 8.18 33.25 8.19 33.28C8.21 33.31 8.23 33.33 8.24 33.37C8.25 33.4 8.26 33.43 8.27 33.46C8.27 33.49 8.28 33.52 8.28 33.55C8.28 33.68 8.22 33.81 8.13 33.9C8.11 33.92 8.08 33.94 8.06 33.96C8.03 33.98 8 34 7.97 34.01C7.94 34.02 7.91 34.03 7.88 34.04C7.85 34.04 7.82 34.05 7.79 34.05Z"
            fill-opacity="1.000000" fill-rule="nonzero" />
        <path id="Vector__contractFacilities"
            d="M28.01 12.69L26.45 12.69C26.18 12.69 25.96 12.47 25.96 12.2C25.96 11.92 26.18 11.71 26.45 11.71L28.01 11.71C28.28 11.71 28.5 11.92 28.5 12.2C28.5 12.47 28.28 12.69 28.01 12.69Z"
            fill-opacity="1.000000" fill-rule="nonzero" />
        <path id="Vector__contractFacilities"
            d="M28.01 16.29L26.45 16.29C26.18 16.29 25.96 16.07 25.96 15.8C25.96 15.53 26.18 15.31 26.45 15.31L28.01 15.31C28.28 15.31 28.5 15.53 28.5 15.8C28.5 16.07 28.28 16.29 28.01 16.29Z"
            fill-opacity="1.000000" fill-rule="nonzero" />
        <path id="Vector__contractFacilities"
            d="M28.01 19.9L26.45 19.9C26.18 19.9 25.96 19.68 25.96 19.4C25.96 19.13 26.18 18.91 26.45 18.91L28.01 18.91C28.28 18.91 28.5 19.13 28.5 19.4C28.5 19.68 28.28 19.9 28.01 19.9Z"
            fill-opacity="1.000000" fill-rule="nonzero" />
        <path id="Vector__contractFacilities"
            d="M28.01 23.5L26.45 23.5C26.18 23.5 25.96 23.28 25.96 23.01C25.96 22.74 26.18 22.52 26.45 22.52L28.01 22.52C28.28 22.52 28.5 22.74 28.5 23.01C28.5 23.28 28.28 23.5 28.01 23.5Z"
            fill-opacity="1.000000" fill-rule="nonzero" />
        <path id="Vector__contractFacilities"
            d="M28.01 27.1L26.45 27.1C26.18 27.1 25.96 26.88 25.96 26.61C25.96 26.34 26.18 26.12 26.45 26.12L28.01 26.12C28.28 26.12 28.5 26.34 28.5 26.61C28.5 26.88 28.28 27.1 28.01 27.1Z"
            fill-opacity="1.000000" fill-rule="nonzero" />
        <path id="Vector__contractFacilities"
            d="M28.01 30.71L26.45 30.71C26.18 30.71 25.96 30.49 25.96 30.21C25.96 29.94 26.18 29.72 26.45 29.72L28.01 29.72C28.28 29.72 28.5 29.94 28.5 30.21C28.5 30.49 28.28 30.71 28.01 30.71Z"
            fill-opacity="1.000000" fill-rule="nonzero" />
        <path id="Vector__contractFacilities"
            d="M22.65 28.69C22.38 28.69 22.16 28.47 22.16 28.19L22.16 20.44L14.9 27.7L20.15 27.7C20.42 27.7 20.64 27.92 20.64 28.19C20.64 28.47 20.42 28.69 20.15 28.69L13.71 28.69C13.51 28.69 13.33 28.57 13.25 28.38C13.18 28.2 13.22 27.99 13.36 27.85L22.3 18.91C22.44 18.76 22.65 18.72 22.84 18.8C23.02 18.87 23.14 19.05 23.14 19.25L23.14 28.19C23.14 28.46 22.92 28.69 22.65 28.69Z"
            fill-opacity="1.000000" fill-rule="nonzero" />
        <path id="Vector__contractFacilities"
            d="M28.01 34.05L9.39 34.05C9.12 34.05 8.9 33.83 8.9 33.55C8.9 33.28 9.12 33.06 9.39 33.06L27.52 33.06L27.52 7.5L1.96 33.06L6.1 33.06C6.37 33.06 6.59 33.28 6.59 33.55C6.59 33.83 6.37 34.05 6.1 34.05L0.77 34.05C0.57 34.05 0.39 33.93 0.31 33.74C0.24 33.56 0.28 33.35 0.42 33.21L27.66 5.96C27.8 5.82 28.01 5.78 28.2 5.86C28.38 5.93 28.5 6.11 28.5 6.31L28.5 33.55C28.5 33.83 28.28 34.05 28.01 34.05Z"
            fill-opacity="1.000000" fill-rule="nonzero" />
        <path id="Vector__contractFacilities"
            d="M22.86 6.7C22.75 6.7 22.65 6.67 22.56 6.6C22.37 6.46 22.31 6.21 22.41 6C22.47 5.85 22.6 5.74 22.75 5.71C22.92 5.67 23.09 5.72 23.21 5.84L23.22 5.85C23.41 6.04 23.41 6.35 23.22 6.54L23.2 6.56C23.11 6.65 22.98 6.7 22.86 6.7Z"
            fill-opacity="1.000000" fill-rule="nonzero" />
        <path id="Vector__contractFacilities"
            d="M3.11 25.81C2.58 25.81 2.06 25.61 1.66 25.21L0.13 23.68C-0.67 22.88 -0.67 21.59 0.13 20.79L1.5 19.42C1.69 19.23 2 19.23 2.19 19.42C2.38 19.62 2.38 19.93 2.19 20.12L0.83 21.49C0.41 21.9 0.41 22.57 0.83 22.98L2.36 24.52C2.77 24.93 3.44 24.93 3.85 24.52L21.34 7.03C21.08 6.95 20.84 6.8 20.63 6.6C20.28 6.24 20.08 5.75 20.1 5.24C19.6 5.26 19.1 5.06 18.75 4.71C18.54 4.5 18.39 4.26 18.31 4L3.57 18.74C3.38 18.93 3.07 18.93 2.88 18.74C2.69 18.55 2.69 18.23 2.88 18.04L18.55 2.37C18.72 2.2 19 2.18 19.2 2.33C19.4 2.49 19.45 2.76 19.32 2.98C19.11 3.31 19.16 3.73 19.44 4.01C19.61 4.18 19.83 4.27 20.07 4.26C20.34 4.25 20.61 4.35 20.8 4.54C20.99 4.73 21.1 5 21.08 5.27C21.07 5.51 21.16 5.73 21.33 5.9C21.61 6.18 22.03 6.23 22.36 6.03C22.58 5.9 22.85 5.95 23.01 6.15C23.16 6.34 23.14 6.62 22.97 6.8L4.55 25.21C4.15 25.61 3.63 25.81 3.11 25.81Z"
            fill-opacity="1.000000" fill-rule="nonzero" />
        <path id="Vector__contractFacilities"
            d="M3.71 22.13C3.58 22.13 3.45 22.08 3.36 21.98C3.17 21.79 3.17 21.48 3.36 21.29L17.37 7.28C17.56 7.09 17.87 7.09 18.06 7.28C18.25 7.47 18.25 7.79 18.06 7.98L4.05 21.98C3.96 22.08 3.83 22.13 3.71 22.13Z"
            fill-opacity="1.000000" fill-rule="nonzero" />
        <path id="Vector__contractFacilities"
            d="M18.88 6.95C18.85 6.95 18.82 6.95 18.79 6.94C18.76 6.93 18.73 6.92 18.7 6.91C18.67 6.9 18.64 6.88 18.61 6.87C18.58 6.85 18.56 6.83 18.54 6.81C18.45 6.71 18.39 6.59 18.39 6.46C18.39 6.42 18.4 6.39 18.4 6.36C18.41 6.33 18.42 6.3 18.43 6.27C18.44 6.24 18.46 6.21 18.48 6.18C18.49 6.16 18.51 6.13 18.54 6.11C18.56 6.09 18.58 6.07 18.61 6.05C18.64 6.03 18.67 6.02 18.7 6C18.73 5.99 18.76 5.98 18.79 5.98C18.95 5.94 19.12 6 19.23 6.11C19.26 6.13 19.28 6.16 19.29 6.18C19.31 6.21 19.33 6.24 19.34 6.27C19.35 6.3 19.36 6.33 19.37 6.36C19.37 6.39 19.38 6.42 19.38 6.46C19.38 6.59 19.33 6.71 19.23 6.81C19.14 6.9 19.01 6.95 18.88 6.95Z"
            fill-opacity="1.000000" fill-rule="nonzero" />
        <path id="Vector__contractFacilities"
            d="M3.11 25.85C2.61 25.85 2.11 25.66 1.74 25.29L0.06 23.61C-0.7 22.85 -0.7 21.62 0.06 20.86L1.5 19.42C1.69 19.23 2 19.23 2.19 19.42L5.92 23.15C6.11 23.34 6.11 23.65 5.92 23.85L4.48 25.29C4.1 25.66 3.6 25.85 3.11 25.85ZM2.43 24.59C2.8 24.96 3.41 24.96 3.78 24.59L4.87 23.5L1.84 20.47L0.75 21.56C0.38 21.93 0.38 22.54 0.75 22.91L2.43 24.59Z"
            fill-opacity="1.000000" fill-rule="nonzero" />
        <path id="Vector__contractFacilities"
            d="M21.93 7.13C21.45 7.13 20.99 6.95 20.64 6.6C20.28 6.24 20.08 5.75 20.1 5.24C19.6 5.26 19.1 5.06 18.75 4.71C18.15 4.11 18.04 3.19 18.47 2.46C18.5 2.42 18.53 2.38 18.55 2.35C18.64 2.22 18.77 2.11 18.91 2.04C18.93 2.03 18.95 2.03 18.97 2.02C19.03 1.99 19.08 1.98 19.14 1.96L24.74 -0.03C24.92 -0.09 25.12 -0.05 25.25 0.09C25.39 0.22 25.43 0.42 25.37 0.6L23.38 6.2C23.36 6.26 23.35 6.31 23.33 6.37C23.32 6.39 23.31 6.41 23.29 6.44C23.22 6.57 23.12 6.7 23 6.79C22.96 6.81 22.92 6.84 22.88 6.87C22.58 7.05 22.25 7.13 21.93 7.13ZM20.11 4.26C20.37 4.26 20.62 4.36 20.8 4.54C20.99 4.73 21.1 5 21.08 5.27C21.08 5.51 21.16 5.73 21.33 5.9C21.61 6.18 22.03 6.23 22.36 6.03C22.38 6.02 22.4 6.01 22.41 6C22.42 5.96 22.43 5.93 22.44 5.91L24.09 1.25L19.44 2.91C19.41 2.92 19.38 2.92 19.35 2.93C19.34 2.95 19.33 2.96 19.31 2.98C19.11 3.31 19.16 3.74 19.44 4.01C19.61 4.18 19.83 4.27 20.07 4.26C20.09 4.26 20.1 4.26 20.11 4.26Z"
            fill-opacity="1.000000" fill-rule="nonzero" />
        <path id="Vector__contractFacilities"
            d="M23.88 3.8C23.76 3.8 23.63 3.75 23.54 3.66L21.68 1.81C21.49 1.62 21.49 1.3 21.68 1.11C21.88 0.92 22.19 0.92 22.38 1.11L24.23 2.96C24.42 3.15 24.42 3.46 24.23 3.66C24.13 3.75 24.01 3.8 23.88 3.8Z"
            fill-opacity="1.000000" fill-rule="nonzero" />
    </symbol>
    <symbol id="deadlinesWork" viewBox="0 0 35 29" xmlns="http://www.w3.org/2000/svg">
        <defs />
        <path id="Vector__deadlinesWork"
            d="M7.51 24.5C7.24 24.5 7.02 24.28 7.02 24C7.02 22.32 5.65 20.96 3.97 20.96C2.29 20.96 0.93 22.32 0.93 24C0.93 24.28 0.71 24.5 0.44 24.5C0.16 24.5 -0.06 24.28 -0.06 24L-0.06 3.99C-0.06 1.76 1.75 -0.04 3.97 -0.04C6.2 -0.04 8 1.76 8 3.99L8 24C8 24.28 7.78 24.5 7.51 24.5ZM3.97 19.97C5.19 19.97 6.28 20.51 7.02 21.37L7.02 3.99C7.02 2.31 5.65 0.94 3.97 0.94C2.29 0.94 0.93 2.31 0.93 3.99L0.93 21.37C1.67 20.51 2.76 19.97 3.97 19.97Z"
            fill-opacity="1.000000" fill-rule="nonzero" />
        <path id="Vector__deadlinesWork"
            d="M33.55 28.03C33.28 28.03 33.06 27.81 33.06 27.54L33.06 4.48L8 4.48L8 24C8 24.28 7.78 24.5 7.51 24.5C7.24 24.5 7.02 24.28 7.02 24C7.02 22.33 5.65 20.96 3.97 20.96C2.29 20.96 0.93 22.33 0.93 24C0.93 25.68 2.29 27.05 3.97 27.05L30.74 27.05C31.01 27.05 31.23 27.27 31.23 27.54C31.23 27.81 31.01 28.03 30.74 28.03L3.97 28.03C1.75 28.03 -0.06 26.23 -0.06 24C-0.06 21.78 1.75 19.97 3.97 19.97C5.19 19.97 6.28 20.51 7.02 21.37L7.02 3.99C7.02 3.71 7.24 3.5 7.51 3.5L33.55 3.5C33.83 3.5 34.05 3.71 34.05 3.99L34.05 27.54C34.05 27.81 33.83 28.03 33.55 28.03Z"
            fill-opacity="1.000000" fill-rule="nonzero" />
        <path id="Vector__deadlinesWork"
            d="M14.98 12.57L10.17 12.57C9.89 12.57 9.67 12.35 9.67 12.07L9.67 7.26C9.67 6.99 9.89 6.77 10.17 6.77L14.98 6.77C15.25 6.77 15.47 6.99 15.47 7.26L15.47 12.07C15.47 12.35 15.25 12.57 14.98 12.57ZM10.66 11.58L14.49 11.58L14.49 7.75L10.66 7.75L10.66 11.58Z"
            fill-opacity="1.000000" fill-rule="nonzero" />
        <path id="Vector__deadlinesWork"
            d="M19.14 24.52L15.5 24.52C15.23 24.52 15.01 24.3 15.01 24.03C15.01 23.76 15.23 23.54 15.5 23.54L18.65 23.54L18.65 15.55L10.66 15.55L10.66 23.54L11.31 23.54C11.59 23.54 11.81 23.76 11.81 24.03C11.81 24.3 11.59 24.52 11.31 24.52L10.17 24.52C9.89 24.52 9.67 24.3 9.67 24.03L9.67 15.05C9.67 14.78 9.89 14.56 10.17 14.56L19.14 14.56C19.41 14.56 19.63 14.78 19.63 15.05L19.63 24.03C19.63 24.3 19.41 24.52 19.14 24.52Z"
            fill-opacity="1.000000" fill-rule="nonzero" />
        <path id="Vector__deadlinesWork"
            d="M13.17 24.52C13.04 24.52 12.92 24.47 12.83 24.38C12.8 24.36 12.78 24.33 12.76 24.3C12.75 24.28 12.73 24.25 12.72 24.22C12.71 24.19 12.7 24.16 12.69 24.13C12.68 24.1 12.68 24.06 12.68 24.03C12.68 24 12.68 23.97 12.69 23.93C12.7 23.9 12.71 23.87 12.72 23.84C12.73 23.81 12.75 23.78 12.76 23.76C12.78 23.73 12.8 23.71 12.83 23.68C12.92 23.59 13.04 23.54 13.17 23.54C13.3 23.54 13.43 23.59 13.52 23.68C13.54 23.71 13.56 23.73 13.58 23.76C13.6 23.78 13.62 23.81 13.63 23.84C13.64 23.87 13.65 23.9 13.66 23.93C13.66 23.97 13.66 24 13.66 24.03C13.66 24.06 13.66 24.1 13.66 24.13C13.65 24.16 13.64 24.19 13.63 24.22C13.62 24.25 13.6 24.28 13.58 24.3C13.56 24.33 13.54 24.36 13.52 24.38C13.43 24.47 13.3 24.52 13.17 24.52Z"
            fill-opacity="1.000000" fill-rule="nonzero" />
        <path id="Vector__deadlinesWork"
            d="M29.7 12.57L17 12.57C16.72 12.57 16.5 12.35 16.5 12.07L16.5 7.26C16.5 6.99 16.72 6.77 17 6.77L23.21 6.77C23.48 6.77 23.7 6.99 23.7 7.26C23.7 7.54 23.48 7.75 23.21 7.75L17.49 7.75L17.49 11.58L29.21 11.58L29.21 7.75L26.93 7.75C26.66 7.75 26.44 7.54 26.44 7.26C26.44 6.99 26.66 6.77 26.93 6.77L29.7 6.77C29.97 6.77 30.19 6.99 30.19 7.26L30.19 12.07C30.19 12.35 29.97 12.57 29.7 12.57Z"
            fill-opacity="1.000000" fill-rule="nonzero" />
        <path id="Vector__deadlinesWork"
            d="M24.96 7.76C24.93 7.76 24.89 7.75 24.86 7.75C24.83 7.74 24.8 7.73 24.77 7.72C24.74 7.71 24.71 7.69 24.69 7.67C24.66 7.65 24.63 7.63 24.61 7.61C24.59 7.59 24.57 7.56 24.55 7.54C24.53 7.51 24.52 7.48 24.5 7.45C24.49 7.42 24.48 7.39 24.48 7.36C24.47 7.33 24.47 7.3 24.47 7.26C24.47 7.23 24.47 7.2 24.48 7.17C24.48 7.14 24.49 7.1 24.5 7.08C24.52 7.05 24.53 7.02 24.55 6.99C24.57 6.96 24.59 6.94 24.61 6.92C24.63 6.89 24.66 6.87 24.69 6.85C24.71 6.84 24.74 6.82 24.77 6.81C24.8 6.8 24.83 6.79 24.86 6.78C24.93 6.77 24.99 6.77 25.05 6.78C25.09 6.79 25.12 6.8 25.15 6.81C25.18 6.82 25.21 6.84 25.23 6.85C25.26 6.87 25.28 6.89 25.31 6.92C25.33 6.94 25.35 6.96 25.37 6.99C25.39 7.02 25.4 7.05 25.41 7.08C25.42 7.1 25.43 7.14 25.44 7.17C25.45 7.2 25.45 7.23 25.45 7.26C25.45 7.3 25.45 7.33 25.44 7.36C25.43 7.39 25.42 7.42 25.41 7.45C25.4 7.48 25.39 7.51 25.37 7.54C25.35 7.56 25.33 7.59 25.31 7.61C25.28 7.63 25.26 7.65 25.23 7.67C25.21 7.69 25.18 7.71 25.15 7.72C25.12 7.73 25.09 7.74 25.05 7.75C25.02 7.75 24.99 7.76 24.96 7.76Z"
            fill-opacity="1.000000" fill-rule="nonzero" />
        <path id="Vector__deadlinesWork"
            d="M24.89 24.76L22.19 24.76C21.92 24.76 21.7 24.54 21.7 24.26L21.7 15.05C21.7 14.78 21.92 14.56 22.19 14.56L24.89 14.56C25.16 14.56 25.38 14.78 25.38 15.05L25.38 24.26C25.38 24.54 25.16 24.76 24.89 24.76ZM22.69 23.77L24.39 23.77L24.39 15.55L22.69 15.55L22.69 23.77Z"
            fill-opacity="1.000000" fill-rule="nonzero" />
        <path id="Vector__deadlinesWork"
            d="M29.7 24.76L27 24.76C26.73 24.76 26.51 24.54 26.51 24.26L26.51 15.05C26.51 14.78 26.73 14.56 27 14.56L29.7 14.56C29.97 14.56 30.19 14.78 30.19 15.05L30.19 24.26C30.19 24.54 29.97 24.76 29.7 24.76ZM27.5 23.77L29.21 23.77L29.21 15.55L27.5 15.55L27.5 23.77Z"
            fill-opacity="1.000000" fill-rule="nonzero" />
        <path id="Vector__deadlinesWork"
            d="M3.76 18.13C3.49 18.13 3.27 17.91 3.27 17.64L3.27 4.53C3.27 4.25 3.49 4.03 3.76 4.03C4.04 4.03 4.25 4.25 4.25 4.53L4.25 17.64C4.25 17.91 4.03 18.13 3.76 18.13Z"
            fill-opacity="1.000000" fill-rule="nonzero" />
        <path id="Vector__deadlinesWork"
            d="M3.76 3.46C3.63 3.46 3.51 3.41 3.41 3.32C3.32 3.23 3.27 3.1 3.27 2.97C3.27 2.84 3.32 2.72 3.41 2.62C3.53 2.51 3.7 2.46 3.86 2.49C3.89 2.5 3.92 2.51 3.95 2.52C3.98 2.53 4.01 2.54 4.04 2.56C4.06 2.58 4.09 2.6 4.11 2.62C4.2 2.72 4.25 2.84 4.25 2.97C4.25 3.1 4.2 3.23 4.11 3.32C4.09 3.34 4.06 3.36 4.04 3.38C4.01 3.4 3.98 3.41 3.95 3.43C3.92 3.44 3.89 3.45 3.86 3.45C3.83 3.46 3.79 3.46 3.76 3.46Z"
            fill-opacity="1.000000" fill-rule="nonzero" />
    </symbol>
    <symbol id="email" viewBox="0 0 29 18" xmlns="http://www.w3.org/2000/svg">
        <defs />
        <path id="rect2666__email" d="M27.3 0.27L27.3 16.24L0.7 16.24L0.7 0.27L27.3 0.27Z" stroke="#2CA6DE"
            stroke-opacity="1.000000" stroke-width="2.000000" stroke-linejoin="round" />
        <path id="path2668__email" d="M0.69 0.22L13.95 12.02L27.3 0.27L0.69 0.22Z" stroke="#2CA6DE"
            stroke-opacity="1.000000" stroke-width="2.000000" stroke-linejoin="round" />
        <path id="path2671__email" d="M0.69 16.29L27.3 16.24L18.26 8.28L13.95 12.07L9.69 8.28L0.69 16.29Z"
            stroke="#2CA6DE" stroke-opacity="1.000000" stroke-width="2.000000" stroke-linejoin="round" />
    </symbol>
    <symbol id="ExecutionWork" viewBox="0 0 27 35" xmlns="http://www.w3.org/2000/svg">
        <defs />
        <path id="Vector__ExecutionWork"
            d="M13.25 29.11C12.98 29.11 12.76 28.89 12.76 28.62C12.76 28.34 12.98 28.12 13.25 28.12C15.2 28.12 17.02 27.37 18.4 25.99L22.33 22.06C23.11 21.28 23.11 20.01 22.33 19.23L21.06 17.96C20.87 17.77 20.87 17.46 21.06 17.27C21.25 17.08 21.57 17.08 21.76 17.27L23.02 18.53C24.19 19.7 24.19 21.59 23.02 22.76L19.1 26.69C17.53 28.25 15.46 29.11 13.25 29.11Z"
            fill-opacity="1.000000" fill-rule="nonzero" />
        <path id="Vector__ExecutionWork"
            d="M20.22 16.92C20.09 16.92 19.96 16.87 19.87 16.78C19.85 16.75 19.83 16.73 19.81 16.7C19.79 16.67 19.78 16.65 19.77 16.62C19.75 16.59 19.75 16.56 19.74 16.52C19.73 16.49 19.73 16.46 19.73 16.43C19.73 16.39 19.73 16.36 19.74 16.33C19.75 16.3 19.75 16.27 19.77 16.24C19.78 16.21 19.79 16.18 19.81 16.15C19.83 16.13 19.85 16.1 19.87 16.08C19.99 15.96 20.16 15.91 20.32 15.95C20.35 15.95 20.38 15.96 20.41 15.97C20.44 15.99 20.47 16 20.49 16.02C20.52 16.04 20.55 16.06 20.57 16.08C20.59 16.1 20.61 16.13 20.63 16.15C20.65 16.18 20.66 16.21 20.67 16.24C20.69 16.27 20.7 16.3 20.7 16.33C20.71 16.36 20.71 16.39 20.71 16.43C20.71 16.46 20.71 16.49 20.7 16.52C20.7 16.56 20.69 16.59 20.67 16.62C20.66 16.65 20.65 16.67 20.63 16.7C20.61 16.73 20.59 16.75 20.57 16.78C20.55 16.8 20.52 16.82 20.49 16.84C20.47 16.85 20.44 16.87 20.41 16.88C20.38 16.89 20.35 16.9 20.32 16.91C20.29 16.92 20.25 16.92 20.22 16.92Z"
            fill-opacity="1.000000" fill-rule="nonzero" />
        <path id="Vector__ExecutionWork"
            d="M11.54 30.82C11.42 30.82 11.29 30.77 11.19 30.67L5.79 25.27C5.6 25.08 5.6 24.76 5.79 24.57L7.66 22.71L7.66 19.14C7.66 18.76 7.81 18.4 8.08 18.12L11.24 14.96C11.51 14.69 11.87 14.54 12.26 14.54L13.64 14.54L14.22 13.96C14.27 13.91 14.31 13.87 14.36 13.83C15.54 12.79 17.33 12.84 18.45 13.96L19.5 15.01C19.69 15.2 19.69 15.51 19.5 15.7C19.31 15.9 18.99 15.9 18.8 15.7L17.75 14.65C17 13.91 15.8 13.87 15.01 14.57C15.01 14.57 15 14.57 15 14.57C14.98 14.6 14.95 14.62 14.91 14.65L14.19 15.38C14.1 15.47 13.97 15.52 13.84 15.52L12.26 15.52C12.14 15.52 12.02 15.57 11.94 15.66L8.77 18.82C8.69 18.91 8.64 19.02 8.64 19.14L8.64 22.91C8.64 23.04 8.59 23.17 8.5 23.26L6.84 24.92L11.89 29.98C12.08 30.17 12.08 30.48 11.89 30.67C11.79 30.77 11.67 30.82 11.54 30.82Z"
            fill-opacity="1.000000" fill-rule="nonzero" />
        <path id="Vector__ExecutionWork"
            d="M10.44 34.05C10.31 34.05 10.18 34 10.09 33.9L2.41 26.22C2.21 26.03 2.21 25.72 2.41 25.53L4.58 23.36C4.77 23.16 5.08 23.16 5.27 23.36L12.95 31.04C13.15 31.23 13.15 31.54 12.95 31.74L10.79 33.9C10.69 34 10.56 34.05 10.44 34.05ZM3.45 25.87L10.44 32.86L11.91 31.39L4.92 24.4L3.45 25.87Z"
            fill-opacity="1.000000" fill-rule="nonzero" />
        <path id="Vector__ExecutionWork"
            d="M3.67 9.49C3.54 9.49 3.41 9.44 3.32 9.35C3.23 9.26 3.17 9.13 3.17 9C3.17 8.87 3.23 8.74 3.32 8.65C3.41 8.56 3.54 8.51 3.67 8.51C3.8 8.51 3.92 8.56 4.01 8.65C4.11 8.74 4.16 8.87 4.16 9C4.16 9.13 4.11 9.26 4.01 9.35C3.92 9.44 3.8 9.49 3.67 9.49Z"
            fill-opacity="1.000000" fill-rule="nonzero" />
        <path id="Vector__ExecutionWork"
            d="M7.37 16.35C7.24 16.35 7.12 16.3 7.02 16.21L5.49 14.68C5.3 14.48 5.3 14.17 5.49 13.98L11.39 8.08C11.58 7.89 11.89 7.89 12.09 8.08L13.62 9.61C13.81 9.8 13.81 10.12 13.62 10.31L7.72 16.21C7.62 16.3 7.5 16.35 7.37 16.35ZM6.54 14.33L7.37 15.16L12.57 9.96L11.74 9.13L6.54 14.33Z"
            fill-opacity="1.000000" fill-rule="nonzero" />
        <path id="Vector__ExecutionWork"
            d="M10.59 16.8C10.46 16.8 10.34 16.76 10.25 16.67L8.35 14.9C8.26 14.8 8.2 14.68 8.2 14.55C8.2 14.41 8.25 14.28 8.34 14.19L11.6 10.93C11.79 10.74 12.1 10.74 12.3 10.93C12.49 11.12 12.49 11.44 12.3 11.63L9.4 14.53L10.58 15.63L11.24 14.96C11.51 14.69 11.87 14.54 12.26 14.54L13.64 14.54L13.99 14.18L12.72 12.82C12.53 12.62 12.54 12.31 12.74 12.13C12.94 11.94 13.25 11.95 13.44 12.15L15.04 13.86C15.13 13.96 15.18 14.09 15.17 14.23C15.17 14.36 15.1 14.49 15 14.57C14.98 14.6 14.95 14.62 14.92 14.65L14.19 15.38C14.1 15.47 13.97 15.52 13.84 15.52L12.26 15.52C12.14 15.52 12.02 15.57 11.94 15.66L10.93 16.66C10.84 16.76 10.71 16.8 10.59 16.8Z"
            fill-opacity="1.000000" fill-rule="nonzero" />
        <path id="Vector__ExecutionWork"
            d="M23.63 29.02C23.51 29.02 23.39 28.97 23.29 28.89L21.05 26.78C20.85 26.59 20.84 26.28 21.02 26.08C21.21 25.89 21.52 25.88 21.72 26.06L23.62 27.84L25.25 26.21L22.51 23.28L20.33 25.46C20.13 25.65 19.82 25.65 19.63 25.46C19.44 25.26 19.44 24.95 19.63 24.76L22.17 22.22C22.26 22.13 22.39 22.08 22.53 22.08C22.66 22.08 22.79 22.13 22.88 22.23L26.3 25.88C26.48 26.08 26.47 26.38 26.28 26.57L23.98 28.87C23.88 28.97 23.76 29.02 23.63 29.02Z"
            fill-opacity="1.000000" fill-rule="nonzero" />
        <path id="Vector__ExecutionWork"
            d="M1.62 19.05C1.48 19.05 1.36 18.99 1.27 18.9L1.25 18.89C-1 16.63 -1 12.97 1.25 10.72L2.22 9.75C2.41 9.56 2.72 9.56 2.91 9.75C3.11 9.95 3.11 10.26 2.91 10.45L1.95 11.42C0.19 13.17 0.09 15.96 1.63 17.84L12.61 6.86L9.55 3.81L5.19 8.18C4.99 8.37 4.68 8.37 4.49 8.18C4.3 7.98 4.3 7.67 4.49 7.48L9.2 2.76C9.4 2.57 9.71 2.57 9.9 2.76L13.65 6.52C13.75 6.61 13.8 6.73 13.8 6.86C13.8 7 13.75 7.12 13.65 7.21L1.96 18.9C1.87 18.99 1.75 19.05 1.62 19.05Z"
            fill-opacity="1.000000" fill-rule="nonzero" />
        <path id="Vector__ExecutionWork"
            d="M14.98 9.03C14.85 9.03 14.72 8.98 14.63 8.89L7.74 1.99C7.54 1.8 7.54 1.49 7.74 1.3L8.37 0.66C9.33 -0.3 10.89 -0.3 11.86 0.66L15.96 4.77C16.42 5.23 16.68 5.85 16.68 6.51C16.68 7.17 16.42 7.79 15.96 8.26L15.33 8.89C15.24 8.98 15.11 9.03 14.98 9.03ZM8.78 1.64L14.98 7.84L15.26 7.56C15.54 7.28 15.7 6.91 15.7 6.51C15.7 6.12 15.54 5.74 15.26 5.46L11.16 1.36C10.58 0.78 9.64 0.78 9.06 1.36L8.78 1.64Z"
            fill-opacity="1.000000" fill-rule="nonzero" />
    </symbol>
    <symbol id="HighQuality" viewBox="0 0 23 33" xmlns="http://www.w3.org/2000/svg">
        <defs />
        <path id="Vector__HighQuality"
            d="M20.74 13.36L20.74 16.37L18.12 17.88L16.62 20.49L16.23 20.49C16.23 20.49 16.24 20.49 16.24 20.5L16.24 31.75C16.24 31.75 16.23 31.75 16.23 31.75C16.24 31.94 16.17 32.14 16.02 32.28C15.88 32.43 15.68 32.5 15.49 32.49C15.49 32.49 15.49 32.5 15.49 32.5C15.25 32.5 15.04 32.38 14.9 32.2L10.99 28.28L7.07 32.2C6.93 32.38 6.73 32.5 6.49 32.5C6.48 32.5 6.48 32.49 6.48 32.49C6.29 32.5 6.09 32.43 5.95 32.28C5.8 32.14 5.73 31.94 5.74 31.75C5.74 31.75 5.74 31.75 5.74 31.75L5.74 20.5C5.74 20.49 5.74 20.49 5.74 20.49L5.36 20.49L3.85 17.88L1.23 16.37L1.23 13.36L-0.27 10.75L1.23 8.13L1.23 5.12L3.85 3.61L5.36 1L8.37 1L10.98 -0.51L13.6 1L16.62 1L18.12 3.61L20.74 5.12L20.74 8.13L22.25 10.75L20.74 13.36ZM7.24 20.5L7.24 29.96L10.38 26.82C10.4 26.78 10.42 26.74 10.45 26.71C10.6 26.56 10.79 26.49 10.99 26.5C11.18 26.49 11.37 26.56 11.52 26.71C11.55 26.74 11.57 26.78 11.59 26.82L14.74 29.96L14.74 20.5C14.74 20.49 14.74 20.49 14.74 20.49L13.6 20.49L10.99 22L8.37 20.49L7.23 20.49C7.23 20.49 7.24 20.49 7.24 20.5ZM19.24 8.53L19.24 5.98L17.02 4.7L15.75 2.5L13.2 2.5L10.99 1.22L8.78 2.5L6.22 2.5L4.95 4.7L2.74 5.98L2.74 8.53L1.46 10.75L2.74 12.96L2.74 15.51L4.95 16.78L6.22 18.99L8.78 18.99L10.99 20.27L13.2 18.99L15.75 18.99L17.02 16.78L19.23 15.51L19.23 12.96L20.51 10.75L19.24 8.53Z"
            fill-opacity="1.000000" fill-rule="evenodd" />
    </symbol>
    <symbol id="intagram" viewBox="0 0 20 20" xmlns="http://www.w3.org/2000/svg">
        <defs />
        <path id="Vector__intagram"
            d="M10 1.8C12.66 1.8 12.98 1.81 14.04 1.86C16.75 1.98 18.01 3.26 18.14 5.95C18.18 7.01 18.19 7.33 18.19 10C18.19 12.67 18.18 12.98 18.14 14.04C18.01 16.72 16.75 18.01 14.04 18.14C12.98 18.18 12.67 18.19 10 18.19C7.33 18.19 7.01 18.18 5.95 18.14C3.24 18.01 1.98 16.72 1.86 14.04C1.81 12.98 1.8 12.67 1.8 10C1.8 7.33 1.81 7.01 1.86 5.95C1.98 3.26 3.24 1.98 5.95 1.86C7.01 1.81 7.33 1.8 10 1.8ZM10 0C7.28 0 6.94 0.01 5.87 0.05C2.24 0.22 0.22 2.24 0.06 5.87C0.01 6.94 0 7.28 0 10C0 12.71 0.01 13.05 0.05 14.12C0.22 17.75 2.24 19.77 5.87 19.94C6.94 19.98 7.28 20 10 20C12.71 20 13.05 19.98 14.12 19.94C17.75 19.77 19.77 17.75 19.93 14.12C19.98 13.05 20 12.71 20 10C20 7.28 19.98 6.94 19.94 5.87C19.77 2.24 17.75 0.22 14.12 0.06C13.05 0.01 12.71 0 10 0L10 0ZM10 4.86C7.16 4.86 4.86 7.16 4.86 10C4.86 12.83 7.16 15.13 10 15.13C12.83 15.13 15.13 12.83 15.13 10C15.13 7.16 12.83 4.86 10 4.86ZM10 13.33C8.15 13.33 6.66 11.84 6.66 10C6.66 8.15 8.15 6.66 10 6.66C11.84 6.66 13.33 8.15 13.33 10C13.33 11.84 11.84 13.33 10 13.33ZM15.33 3.46C14.67 3.46 14.13 4 14.13 4.66C14.13 5.32 14.67 5.86 15.33 5.86C16 5.86 16.53 5.32 16.53 4.66C16.53 4 16 3.46 15.33 3.46Z"
            fill-opacity="1.000000" fill-rule="nonzero" />
    </symbol>
    <symbol id="LowBudget" viewBox="0 0 35 30" xmlns="http://www.w3.org/2000/svg">
        <defs />
        <path id="Vector__LowBudget"
            d="M34.25 26C34.25 28.07 32.57 29.75 30.5 29.75L3.5 29.75C1.42 29.75 -0.25 28.07 -0.25 26L-0.25 4.25C-0.25 2.59 1.09 1.25 2.75 1.25L17.87 1.25L23.95 -0.96C24.33 -1.1 24.76 -0.9 24.9 -0.51L25.54 1.25L28.25 1.25C29.9 1.25 31.25 2.59 31.25 4.25L31.25 5.75C32.9 5.75 34.25 7.09 34.25 8.75L34.25 26ZM2.75 2.75C1.92 2.75 1.25 3.42 1.25 4.25C1.25 5.07 1.92 5.75 2.75 5.75L5.33 5.75L5.47 5.75C5.48 5.74 5.49 5.73 5.5 5.73L13.73 2.75L2.75 2.75ZM24.55 2.88L23.76 0.69L23.76 0.69L22.22 1.25L22.22 1.25L18.08 2.75L18.08 2.75L9.8 5.75L25.59 5.75L24.55 2.88ZM29.75 4.25C29.75 3.42 29.07 2.75 28.25 2.75L26.08 2.75L27.17 5.75L29.75 5.75L29.75 4.25ZM31.25 7.25L2.75 7.25C2.2 7.25 1.69 7.09 1.25 6.83L1.25 26C1.25 27.24 2.25 28.25 3.5 28.25L30.5 28.25C31.74 28.25 32.75 27.24 32.75 26L32.75 20.75L29.75 20.75C28.09 20.75 26.75 19.4 26.75 17.75C26.75 16.09 28.09 14.75 29.75 14.75L32.75 14.75L32.75 8.75C32.75 7.92 32.07 7.25 31.25 7.25ZM32.75 19.25L32.75 16.25L29.75 16.25C28.92 16.25 28.25 16.92 28.25 17.75C28.25 18.57 28.92 19.25 29.75 19.25L32.75 19.25ZM29.75 17L31.25 17L31.25 18.5L29.75 18.5L29.75 17Z"
            fill-opacity="1.000000" fill-rule="evenodd" />
    </symbol>
    <symbol id="MeasurersVisit" viewBox="0 0 27 27" xmlns="http://www.w3.org/2000/svg">
        <defs />
        <path id="Vector__MeasurersVisit"
            d="M25.91 17.23L15.69 17.23C15.41 17.23 15.19 17.01 15.19 16.74C15.19 16.47 15.41 16.25 15.69 16.25L25.42 16.25L25.42 13.35L16.18 13.35L16.18 14.19C16.18 14.46 15.96 14.68 15.69 14.68C15.41 14.68 15.19 14.46 15.19 14.19L15.19 12.86C15.19 12.59 15.41 12.37 15.69 12.37L25.91 12.37C26.18 12.37 26.4 12.59 26.4 12.86L26.4 16.74C26.4 17.01 26.18 17.23 25.91 17.23Z"
            fill-opacity="1.000000" fill-rule="nonzero" />
        <path id="Vector__MeasurersVisit"
            d="M10.3 17.23L0.08 17.23C-0.19 17.23 -0.41 17.01 -0.41 16.74L-0.41 12.86C-0.41 12.59 -0.19 12.37 0.08 12.37L3.99 12.37C4.26 12.37 4.48 12.59 4.48 12.86C4.48 13.13 4.26 13.35 3.99 13.35L0.57 13.35L0.57 16.25L9.81 16.25L9.81 13.35L7.12 13.35C6.85 13.35 6.63 13.13 6.63 12.86C6.63 12.59 6.85 12.37 7.12 12.37L10.3 12.37C10.57 12.37 10.79 12.59 10.79 12.86L10.79 16.74C10.79 17.01 10.57 17.23 10.3 17.23Z"
            fill-opacity="1.000000" fill-rule="nonzero" />
        <path id="Vector__MeasurersVisit"
            d="M25.91 23.71L15.69 23.71C15.41 23.71 15.19 23.49 15.19 23.21L15.19 19.33C15.19 19.06 15.41 18.84 15.69 18.84L25.91 18.84C26.18 18.84 26.4 19.06 26.4 19.33L26.4 23.21C26.4 23.49 26.18 23.71 25.91 23.71ZM16.18 22.72L25.42 22.72L25.42 19.83L16.18 19.83L16.18 22.72Z"
            fill-opacity="1.000000" fill-rule="nonzero" />
        <path id="Vector__MeasurersVisit"
            d="M10.3 23.71C10.03 23.71 9.81 23.49 9.81 23.21L9.81 19.83L0.57 19.83L0.57 22.72L8.1 22.72C8.37 22.72 8.59 22.94 8.59 23.21C8.59 23.49 8.37 23.71 8.1 23.71L0.08 23.71C-0.19 23.71 -0.41 23.49 -0.41 23.21L-0.41 19.33C-0.41 19.06 -0.19 18.84 0.08 18.84L10.3 18.84C10.57 18.84 10.79 19.06 10.79 19.33L10.79 23.21C10.79 23.49 10.57 23.71 10.3 23.71Z"
            fill-opacity="1.000000" fill-rule="nonzero" />
        <path id="Vector__MeasurersVisit"
            d="M25.91 26.94L0.08 26.94C-0.19 26.94 -0.41 26.72 -0.41 26.45L-0.41 10.77C-0.41 10.62 -0.34 10.47 -0.21 10.37C1.86 8.85 3.09 6.4 3.09 3.83L3.09 -0.46C3.09 -0.73 3.31 -0.95 3.58 -0.95L7.56 -0.95C7.84 -0.95 8.06 -0.73 8.06 -0.46C8.06 2.27 10.27 4.48 13 4.48C14.92 4.48 16.69 3.35 17.49 1.59C17.6 1.35 17.89 1.24 18.14 1.35C18.39 1.47 18.5 1.76 18.38 2C17.42 4.11 15.31 5.47 13 5.47C9.89 5.47 7.34 3.07 7.09 0.04L4.07 0.04L4.07 3.83C4.07 6.63 2.77 9.29 0.57 11.02L0.57 25.96L25.42 25.96L25.42 11.01C24.36 10.19 23.49 9.13 22.89 7.94C22.25 6.67 21.92 5.25 21.92 3.83L21.92 0.03L18.43 0.03C18.15 0.03 17.93 -0.19 17.93 -0.46C17.93 -0.73 18.15 -0.95 18.43 -0.95L22.41 -0.95C22.68 -0.95 22.9 -0.73 22.9 -0.46L22.9 3.83C22.9 5.1 23.2 6.36 23.77 7.5C24.34 8.63 25.18 9.62 26.2 10.37C26.33 10.47 26.4 10.62 26.4 10.77L26.4 26.45C26.4 26.72 26.18 26.94 25.91 26.94Z"
            fill-opacity="1.000000" fill-rule="nonzero" />
        <path id="Vector__MeasurersVisit"
            d="M13 26.94C12.72 26.94 12.5 26.72 12.5 26.45L12.5 4.97C12.5 4.7 12.72 4.48 13 4.48C13.27 4.48 13.49 4.7 13.49 4.97L13.49 26.45C13.49 26.72 13.27 26.94 13 26.94Z"
            fill-opacity="1.000000" fill-rule="nonzero" />
        <path id="Vector__MeasurersVisit"
            d="M5.52 13.35C5.49 13.35 5.45 13.35 5.42 13.34C5.39 13.33 5.36 13.32 5.33 13.31C5.3 13.3 5.27 13.28 5.25 13.27C5.22 13.25 5.19 13.23 5.17 13.21C5.08 13.11 5.03 12.99 5.03 12.86C5.03 12.83 5.03 12.79 5.04 12.76C5.04 12.73 5.05 12.7 5.07 12.67C5.08 12.64 5.09 12.61 5.11 12.58C5.13 12.56 5.15 12.53 5.17 12.51C5.19 12.49 5.22 12.47 5.25 12.45C5.27 12.43 5.3 12.41 5.33 12.4C5.36 12.39 5.39 12.38 5.42 12.37C5.49 12.36 5.55 12.36 5.62 12.37C5.65 12.38 5.68 12.39 5.71 12.4C5.74 12.41 5.77 12.43 5.79 12.45C5.82 12.47 5.84 12.49 5.87 12.51C5.96 12.6 6.01 12.73 6.01 12.86C6.01 12.99 5.96 13.11 5.87 13.21C5.84 13.23 5.82 13.25 5.79 13.27C5.77 13.28 5.74 13.3 5.71 13.31C5.68 13.32 5.65 13.33 5.62 13.34C5.58 13.35 5.55 13.35 5.52 13.35Z"
            fill-opacity="1.000000" fill-rule="nonzero" />
        <path id="Vector__MeasurersVisit"
            d="M19.45 9.22L16.42 9.22C16.15 9.22 15.93 9 15.93 8.73C15.93 8.46 16.15 8.24 16.42 8.24L19.45 8.24C19.72 8.24 19.94 8.46 19.94 8.73C19.94 9 19.72 9.22 19.45 9.22Z"
            fill-opacity="1.000000" fill-rule="nonzero" />
        <path id="Vector__MeasurersVisit"
            d="M6.6 9.22C6.47 9.22 6.34 9.17 6.25 9.08C6.16 8.99 6.11 8.86 6.11 8.73C6.11 8.6 6.16 8.47 6.25 8.38C6.37 8.27 6.54 8.22 6.7 8.25C6.73 8.25 6.76 8.26 6.79 8.28C6.82 8.29 6.85 8.3 6.87 8.32C6.9 8.34 6.93 8.36 6.95 8.38C7.04 8.47 7.09 8.6 7.09 8.73C7.09 8.86 7.04 8.99 6.95 9.08C6.93 9.1 6.9 9.12 6.87 9.14C6.85 9.16 6.82 9.17 6.79 9.18C6.76 9.2 6.73 9.21 6.7 9.21C6.66 9.22 6.63 9.22 6.6 9.22Z"
            fill-opacity="1.000000" fill-rule="nonzero" />
        <path id="Vector__MeasurersVisit"
            d="M8.46 9.22C8.43 9.22 8.4 9.22 8.37 9.21C8.34 9.21 8.31 9.2 8.28 9.18C8.25 9.17 8.22 9.16 8.19 9.14C8.16 9.12 8.14 9.1 8.12 9.08C8.09 9.06 8.07 9.03 8.06 9C8.04 8.98 8.02 8.95 8.01 8.92C8 8.89 7.99 8.86 7.98 8.83C7.98 8.79 7.97 8.76 7.97 8.73C7.97 8.6 8.03 8.47 8.12 8.38C8.14 8.36 8.16 8.34 8.19 8.32C8.22 8.3 8.25 8.29 8.28 8.28C8.31 8.26 8.34 8.25 8.37 8.25C8.53 8.22 8.7 8.27 8.81 8.38C8.9 8.47 8.96 8.6 8.96 8.73C8.96 8.76 8.95 8.79 8.95 8.83C8.94 8.86 8.93 8.89 8.92 8.92C8.91 8.95 8.89 8.98 8.87 9C8.86 9.03 8.83 9.06 8.81 9.08C8.79 9.1 8.76 9.12 8.74 9.14C8.71 9.16 8.68 9.17 8.65 9.18C8.62 9.2 8.59 9.21 8.56 9.21C8.53 9.22 8.5 9.22 8.46 9.22Z"
            fill-opacity="1.000000" fill-rule="nonzero" />
        <path id="Vector__MeasurersVisit"
            d="M10.3 9.22C10.27 9.22 10.24 9.22 10.21 9.21C10.18 9.21 10.14 9.2 10.12 9.18C10.09 9.17 10.06 9.16 10.03 9.14C10 9.12 9.98 9.1 9.96 9.08C9.86 8.99 9.81 8.86 9.81 8.73C9.81 8.6 9.86 8.47 9.96 8.38C9.98 8.36 10 8.34 10.03 8.32C10.06 8.3 10.09 8.29 10.12 8.28C10.14 8.26 10.18 8.25 10.21 8.25C10.27 8.24 10.34 8.24 10.4 8.25C10.43 8.25 10.46 8.26 10.49 8.28C10.52 8.29 10.55 8.3 10.58 8.32C10.6 8.34 10.63 8.36 10.65 8.38C10.74 8.47 10.8 8.6 10.8 8.73C10.8 8.86 10.74 8.99 10.65 9.08C10.63 9.1 10.6 9.12 10.58 9.14C10.55 9.16 10.52 9.17 10.49 9.18C10.46 9.2 10.43 9.21 10.4 9.21C10.37 9.22 10.33 9.22 10.3 9.22Z"
            fill-opacity="1.000000" fill-rule="nonzero" />
    </symbol>
    <symbol id="phone" viewBox="0 0 23 23" xmlns="http://www.w3.org/2000/svg">
        <defs />
        <path id="Vector__phone"
            d="M4.28 9.49C6.08 13.03 8.97 15.92 12.51 17.72L15.26 14.96C15.61 14.62 16.1 14.52 16.53 14.66C17.93 15.12 19.44 15.37 21 15.37C21.69 15.37 22.25 15.93 22.25 16.62L22.25 21C22.25 21.69 21.69 22.25 21 22.25C9.26 22.25 -0.25 12.73 -0.25 1C-0.25 0.3 0.31 -0.25 1 -0.25L5.37 -0.25C6.06 -0.25 6.62 0.3 6.62 1C6.62 2.55 6.87 4.06 7.33 5.46C7.47 5.89 7.37 6.38 7.03 6.73L4.28 9.49Z"
            fill-opacity="1.000000" fill-rule="nonzero" />
    </symbol>
    <symbol id="Result" viewBox="0 0 29 33" xmlns="http://www.w3.org/2000/svg">
        <defs />
        <path id="Vector__Result"
            d="M23 11.5C23 15.69 20.12 19.2 16.25 20.2L16.25 28L20.75 28C21.16 28 21.5 28.33 21.5 28.75C21.5 29.16 21.16 29.5 20.75 29.5L7.25 29.5C6.83 29.5 6.5 29.16 6.5 28.75C6.5 28.33 6.83 28 7.25 28L11.75 28L11.75 20.2C7.87 19.2 5 15.69 5 11.5C2.1 11.5 -0.25 9.14 -0.25 6.25L-0.25 4.75C-0.25 4.33 0.08 4 0.5 4L5 4L5 3.25C5 2 3.99 1 2.75 1C2.33 1 2 0.66 2 0.25C2 -0.17 2.33 -0.5 2.75 -0.5L25.25 -0.5C25.66 -0.5 26 -0.17 26 0.25C26 0.66 25.66 1 25.25 1C24 1 23 2 23 3.25L23 4L27.5 4C27.91 4 28.25 4.33 28.25 4.75L28.25 6.25C28.25 9.14 25.89 11.5 23 11.5ZM13.25 28L14.75 28L14.75 20.46C14.5 20.48 14.25 20.5 14 20.5C13.74 20.5 13.49 20.48 13.25 20.46L13.25 28ZM1.25 5.5L1.25 6.25C1.25 8.32 2.92 10 5 10L5 5.5L1.25 5.5ZM5.73 1C6.2 1.62 6.5 2.4 6.5 3.25L6.5 11.5C6.5 15.64 9.85 19 14 19C18.14 19 21.5 15.64 21.5 11.5L21.5 3.25C21.5 2.4 21.79 1.62 22.26 1L5.73 1ZM26.75 5.5L23 5.5L23 10C25.07 10 26.75 8.32 26.75 6.25L26.75 5.5ZM5 31L23 31C23.41 31 23.75 31.33 23.75 31.75C23.75 32.16 23.41 32.5 23 32.5L5 32.5C4.58 32.5 4.25 32.16 4.25 31.75C4.25 31.33 4.58 31 5 31Z"
            fill-opacity="1.000000" fill-rule="evenodd" />
    </symbol>
    <symbol id="telegram" viewBox="0 0 21 17" xmlns="http://www.w3.org/2000/svg">
        <defs />
        <path id="telegram-1__telegram"
            d="M15.32 15.98C15.58 16.17 15.93 16.21 16.24 16.1C16.55 15.98 16.77 15.72 16.84 15.4C17.57 12 19.32 3.38 19.98 0.29C20.03 0.05 19.95 -0.19 19.76 -0.35C19.58 -0.5 19.33 -0.55 19.1 -0.46C15.61 0.83 4.85 4.87 0.45 6.5C0.17 6.6 -0.01 6.87 0 7.16C0.01 7.46 0.2 7.71 0.49 7.8C2.46 8.39 5.05 9.21 5.05 9.21C5.05 9.21 6.26 12.86 6.89 14.72C6.97 14.95 7.15 15.14 7.39 15.2C7.63 15.26 7.89 15.2 8.07 15.03C9.08 14.07 10.65 12.59 10.65 12.59C10.65 12.59 13.63 14.78 15.32 15.98ZM6.14 8.75L7.54 13.36L7.85 10.44C7.85 10.44 13.26 5.56 16.34 2.78C16.43 2.7 16.44 2.57 16.37 2.47C16.29 2.37 16.15 2.35 16.05 2.42C12.48 4.7 6.14 8.75 6.14 8.75Z"
            fill-opacity="1.000000" fill-rule="evenodd" />
    </symbol>
    <symbol id="time" viewBox="0 0 24 35" xmlns="http://www.w3.org/2000/svg">
        <defs />
        <path id="Vector__time"
            d="M22.5 18.5C22.46 18.5 22.43 18.49 22.39 18.48C21.98 21.54 20.35 24.21 18 25.98L18 31.25C18 32.9 16.65 34.25 15 34.25L7.5 34.25C5.84 34.25 4.5 32.9 4.5 31.25L4.5 25.98C1.77 23.93 0 20.67 0 17C0 13.32 1.77 10.06 4.5 8.01L4.5 2.75C4.5 1.09 5.84 -0.25 7.5 -0.25L15 -0.25C16.65 -0.25 18 1.09 18 2.75L18 8.01C20.35 9.78 21.98 12.45 22.39 15.51C22.43 15.5 22.46 15.5 22.5 15.5C23.32 15.5 24 16.17 24 17C24 17.82 23.32 18.5 22.5 18.5ZM6 31.25C6 32.07 6.67 32.75 7.5 32.75L15 32.75C15.82 32.75 16.5 32.07 16.5 31.25L16.5 26.94C14.93 27.77 13.14 28.25 11.25 28.25C9.35 28.25 7.56 27.77 6 26.94L6 31.25ZM16.5 2.75C16.5 1.92 15.82 1.25 15 1.25L7.5 1.25C6.67 1.25 6 1.92 6 2.75L6 7.05C7.56 6.22 9.35 5.75 11.25 5.75C13.14 5.75 14.93 6.22 16.5 7.05L16.5 2.75ZM11.25 7.25C5.86 7.25 1.5 11.61 1.5 17C1.5 22.38 5.86 26.75 11.25 26.75C16.63 26.75 21 22.38 21 17C21 11.61 16.63 7.25 11.25 7.25ZM12 19.11L12 23.75C12 24.16 11.66 24.5 11.25 24.5C10.83 24.5 10.5 24.16 10.5 23.75L10.5 19.11C9.62 18.8 9 17.97 9 17C9 16.64 9.08 16.31 9.23 16.01L6.96 13.74C6.67 13.46 6.67 12.99 6.96 12.71C7.25 12.42 7.71 12.42 8 12.71L10.26 14.98C10.56 14.83 10.89 14.75 11.25 14.75C12.49 14.75 13.5 15.75 13.5 17C13.5 17.97 12.87 18.8 12 19.11ZM11.25 16.25C10.83 16.25 10.5 16.58 10.5 17C10.5 17.41 10.83 17.75 11.25 17.75C11.66 17.75 12 17.41 12 17C12 16.58 11.66 16.25 11.25 16.25Z"
            fill-opacity="1.000000" fill-rule="evenodd" />
    </symbol>
    <symbol id="vk" viewBox="0 0 21 11" xmlns="http://www.w3.org/2000/svg">
        <defs />
        <path id="Vector__vk"
            d="M10.96 10.82C11.47 10.82 11.68 10.49 11.67 10.06C11.65 8.46 12.27 7.6 13.39 8.72C14.63 9.96 14.88 10.82 16.39 10.82L19.06 10.82C19.73 10.82 20 10.61 20 10.27C20 9.55 18.81 8.28 17.81 7.35C16.4 6.04 16.34 6.01 17.55 4.44C19.05 2.49 21.01 0 19.28 0L15.96 0C15.31 0 15.27 0.36 15.04 0.9C14.21 2.85 12.63 5.39 12.04 5C11.41 4.6 11.7 2.99 11.74 0.62C11.76 -0.01 11.75 -0.44 10.79 -0.67C10.27 -0.79 9.76 -0.84 9.29 -0.84C7.39 -0.84 6.08 -0.04 6.83 0.09C8.14 0.34 8.01 3.17 7.7 4.39C7.17 6.52 5.17 2.71 4.34 0.81C4.14 0.35 4.08 0 3.36 0L0.65 0C0.24 0 0 0.13 0 0.43C0 0.93 2.46 6.03 4.82 8.57C7.11 11.05 9.38 10.82 10.96 10.82Z"
            fill-opacity="1.000000" fill-rule="nonzero" />
    </symbol>
    <symbol id="whatsapp" viewBox="0 0 16 16" xmlns="http://www.w3.org/2000/svg">
        <defs />
        <path id="Vector__whatsapp"
            d="M0 15.5L1.12 11.39C0.43 10.18 0.06 8.82 0.06 7.42C0.06 3.05 3.62 -0.5 7.99 -0.5C10.11 -0.5 12.1 0.32 13.6 1.82C15.1 3.32 15.92 5.31 15.92 7.43C15.92 11.8 12.36 15.36 7.99 15.36C6.66 15.36 5.36 15.02 4.2 14.39L0 15.5ZM4.39 12.96C5.51 13.62 6.58 14.02 7.99 14.02C11.62 14.02 14.58 11.06 14.58 7.43C14.58 3.79 11.64 0.83 7.99 0.83C4.36 0.83 1.4 3.79 1.4 7.42C1.4 8.91 1.83 10.02 2.56 11.18L1.9 13.61L4.39 12.96ZM11.98 9.31C11.94 9.23 11.8 9.18 11.6 9.08C11.41 8.98 10.43 8.5 10.25 8.44C10.07 8.37 9.94 8.34 9.8 8.54C9.67 8.74 9.29 9.18 9.18 9.31C9.06 9.45 8.95 9.46 8.75 9.36C8.55 9.26 7.91 9.06 7.15 8.38C6.57 7.86 6.17 7.21 6.05 7.01C5.94 6.81 6.04 6.7 6.14 6.6C6.23 6.51 6.34 6.37 6.44 6.26C6.54 6.14 6.57 6.06 6.64 5.93C6.7 5.79 6.67 5.68 6.62 5.58C6.57 5.48 6.17 4.5 6.01 4.11C5.85 3.72 5.68 3.77 5.56 3.77L5.18 3.76C5.05 3.76 4.84 3.81 4.66 4.01C4.47 4.21 3.96 4.69 3.96 5.66C3.96 6.64 4.67 7.58 4.77 7.71C4.87 7.84 6.17 9.84 8.15 10.7C8.63 10.91 9 11.03 9.28 11.12C9.76 11.27 10.19 11.25 10.53 11.2C10.91 11.14 11.7 10.72 11.87 10.26C12.03 9.79 12.03 9.4 11.98 9.31Z"
            fill-opacity="1.000000" fill-rule="nonzero" />
    </symbol>
    <symbol id="arrow" viewBox="0 0 73 13" xmlns="http://www.w3.org/2000/svg"
        xmlns:xlink="http://www.w3.org/1999/xlink">
        <desc>
            Created with Pixso.
        </desc>
        <defs />
        <path id="Vector 22" d="M60.27 1L70 6L60.27 11L60.27 6L60.27 1Z" fill="#2DA6DD" fill-opacity="1.000000"
            fill-rule="nonzero" />
        <path id="Vector 22" d="M0 6L70 6M60.27 1L60.27 11L70 6L60.27 1Z" stroke="#2DA6DD" stroke-opacity="1.000000"
            stroke-width="2.000000" />
    </symbol>
    <symbol id="success" xmlns="http://www.w3.org/2000/svg" viewBox="0 0 36 36">
        <path fill="#254152" d="M18 2a16 16 0 1 0 16 16A16 16 0 0 0 18 2m0 30a14 14 0 1 1 14-14a14 14 0 0 1-14 14"
            class="clr-i-outline clr-i-outline-path-1" />
        <path fill="#254152"
            d="M28 12.1a1 1 0 0 0-1.41 0l-11.1 11.05l-6-6A1 1 0 0 0 8 18.53L15.49 26L28 13.52a1 1 0 0 0 0-1.42"
            class="clr-i-outline clr-i-outline-path-2" />
        <path fill="none" d="M0 0h36v36H0z" />
    </symbol>
</svg>