<svg width="21.000000" height="17.000000" viewBox="0 0 21 17" fill="none" xmlns="http://www.w3.org/2000/svg" xmlns:xlink="http://www.w3.org/1999/xlink">
	<desc>
			Created with Pixso.
	</desc>
	<defs/>
	<path id="telegram-1" d="M15.32 15.98C15.58 16.17 15.93 16.21 16.24 16.1C16.55 15.98 16.77 15.72 16.84 15.4C17.57 12 19.32 3.38 19.98 0.29C20.03 0.05 19.95 -0.19 19.76 -0.35C19.58 -0.5 19.33 -0.55 19.1 -0.46C15.61 0.83 4.85 4.87 0.45 6.5C0.17 6.6 -0.01 6.87 0 7.16C0.01 7.46 0.2 7.71 0.49 7.8C2.46 8.39 5.05 9.21 5.05 9.21C5.05 9.21 6.26 12.86 6.89 14.72C6.97 14.95 7.15 15.14 7.39 15.2C7.63 15.26 7.89 15.2 8.07 15.03C9.08 14.07 10.65 12.59 10.65 12.59C10.65 12.59 13.63 14.78 15.32 15.98ZM6.14 8.75L7.54 13.36L7.85 10.44C7.85 10.44 13.26 5.56 16.34 2.78C16.43 2.7 16.44 2.57 16.37 2.47C16.29 2.37 16.15 2.35 16.05 2.42C12.48 4.7 6.14 8.75 6.14 8.75Z" fill="#FFFFFF" fill-opacity="1.000000" fill-rule="evenodd"/>
</svg>
