<svg width="24.000000" height="35.000000" viewBox="0 0 24 35" fill="none" xmlns="http://www.w3.org/2000/svg" xmlns:xlink="http://www.w3.org/1999/xlink">
	<desc>
			Created with Pixso.
	</desc>
	<defs/>
	<path id="Vector" d="M22.5 18.5C22.46 18.5 22.43 18.49 22.39 18.48C21.98 21.54 20.35 24.21 18 25.98L18 31.25C18 32.9 16.65 34.25 15 34.25L7.5 34.25C5.84 34.25 4.5 32.9 4.5 31.25L4.5 25.98C1.77 23.93 0 20.67 0 17C0 13.32 1.77 10.06 4.5 8.01L4.5 2.75C4.5 1.09 5.84 -0.25 7.5 -0.25L15 -0.25C16.65 -0.25 18 1.09 18 2.75L18 8.01C20.35 9.78 21.98 12.45 22.39 15.51C22.43 15.5 22.46 15.5 22.5 15.5C23.32 15.5 24 16.17 24 17C24 17.82 23.32 18.5 22.5 18.5ZM6 31.25C6 32.07 6.67 32.75 7.5 32.75L15 32.75C15.82 32.75 16.5 32.07 16.5 31.25L16.5 26.94C14.93 27.77 13.14 28.25 11.25 28.25C9.35 28.25 7.56 27.77 6 26.94L6 31.25ZM16.5 2.75C16.5 1.92 15.82 1.25 15 1.25L7.5 1.25C6.67 1.25 6 1.92 6 2.75L6 7.05C7.56 6.22 9.35 5.75 11.25 5.75C13.14 5.75 14.93 6.22 16.5 7.05L16.5 2.75ZM11.25 7.25C5.86 7.25 1.5 11.61 1.5 17C1.5 22.38 5.86 26.75 11.25 26.75C16.63 26.75 21 22.38 21 17C21 11.61 16.63 7.25 11.25 7.25ZM12 19.11L12 23.75C12 24.16 11.66 24.5 11.25 24.5C10.83 24.5 10.5 24.16 10.5 23.75L10.5 19.11C9.62 18.8 9 17.97 9 17C9 16.64 9.08 16.31 9.23 16.01L6.96 13.74C6.67 13.46 6.67 12.99 6.96 12.71C7.25 12.42 7.71 12.42 8 12.71L10.26 14.98C10.56 14.83 10.89 14.75 11.25 14.75C12.49 14.75 13.5 15.75 13.5 17C13.5 17.97 12.87 18.8 12 19.11ZM11.25 16.25C10.83 16.25 10.5 16.58 10.5 17C10.5 17.41 10.83 17.75 11.25 17.75C11.66 17.75 12 17.41 12 17C12 16.58 11.66 16.25 11.25 16.25Z" fill="#FFFFFF" fill-opacity="1.000000" fill-rule="evenodd"/>
</svg>
