<svg width="21.000000" height="11.000000" viewBox="0 0 21 11" fill="none" xmlns="http://www.w3.org/2000/svg" xmlns:xlink="http://www.w3.org/1999/xlink">
	<desc>
			Created with Pixso.
	</desc>
	<defs/>
	<path id="Vector" d="M10.96 10.82C11.47 10.82 11.68 10.49 11.67 10.06C11.65 8.46 12.27 7.6 13.39 8.72C14.63 9.96 14.88 10.82 16.39 10.82L19.06 10.82C19.73 10.82 20 10.61 20 10.27C20 9.55 18.81 8.28 17.81 7.35C16.4 6.04 16.34 6.01 17.55 4.44C19.05 2.49 21.01 0 19.28 0L15.96 0C15.31 0 15.27 0.36 15.04 0.9C14.21 2.85 12.63 5.39 12.04 5C11.41 4.6 11.7 2.99 11.74 0.62C11.76 -0.01 11.75 -0.44 10.79 -0.67C10.27 -0.79 9.76 -0.84 9.29 -0.84C7.39 -0.84 6.08 -0.04 6.83 0.09C8.14 0.34 8.01 3.17 7.7 4.39C7.17 6.52 5.17 2.71 4.34 0.81C4.14 0.35 4.08 0 3.36 0L0.65 0C0.24 0 0 0.13 0 0.43C0 0.93 2.46 6.03 4.82 8.57C7.11 11.05 9.38 10.82 10.96 10.82Z" fill="#FFFFFF" fill-opacity="1.000000" fill-rule="nonzero"/>
</svg>
