<svg width="16.000000" height="16.000000" viewBox="0 0 16 16" fill="none" xmlns="http://www.w3.org/2000/svg" xmlns:xlink="http://www.w3.org/1999/xlink">
	<desc>
			Created with Pixso.
	</desc>
	<defs/>
	<path id="Vector" d="M0 15.5L1.12 11.39C0.43 10.18 0.06 8.82 0.06 7.42C0.06 3.05 3.62 -0.5 7.99 -0.5C10.11 -0.5 12.1 0.32 13.6 1.82C15.1 3.32 15.92 5.31 15.92 7.43C15.92 11.8 12.36 15.36 7.99 15.36C6.66 15.36 5.36 15.02 4.2 14.39L0 15.5ZM4.39 12.96C5.51 13.62 6.58 14.02 7.99 14.02C11.62 14.02 14.58 11.06 14.58 7.43C14.58 3.79 11.64 0.83 7.99 0.83C4.36 0.83 1.4 3.79 1.4 7.42C1.4 8.91 1.83 10.02 2.56 11.18L1.9 13.61L4.39 12.96ZM11.98 9.31C11.94 9.23 11.8 9.18 11.6 9.08C11.41 8.98 10.43 8.5 10.25 8.44C10.07 8.37 9.94 8.34 9.8 8.54C9.67 8.74 9.29 9.18 9.18 9.31C9.06 9.45 8.95 9.46 8.75 9.36C8.55 9.26 7.91 9.06 7.15 8.38C6.57 7.86 6.17 7.21 6.05 7.01C5.94 6.81 6.04 6.7 6.14 6.6C6.23 6.51 6.34 6.37 6.44 6.26C6.54 6.14 6.57 6.06 6.64 5.93C6.7 5.79 6.67 5.68 6.62 5.58C6.57 5.48 6.17 4.5 6.01 4.11C5.85 3.72 5.68 3.77 5.56 3.77L5.18 3.76C5.05 3.76 4.84 3.81 4.66 4.01C4.47 4.21 3.96 4.69 3.96 5.66C3.96 6.64 4.67 7.58 4.77 7.71C4.87 7.84 6.17 9.84 8.15 10.7C8.63 10.91 9 11.03 9.28 11.12C9.76 11.27 10.19 11.25 10.53 11.2C10.91 11.14 11.7 10.72 11.87 10.26C12.03 9.79 12.03 9.4 11.98 9.31Z" fill="#FFFFFF" fill-opacity="1.000000" fill-rule="nonzero"/>
</svg>
